<svg xmlns="http://www.w3.org/2000/svg" xml:space="preserve" viewBox="0 0 8085 4252"><path fill="none" d="M0 0h8085v4252H0"/><path fill="#fff" d="M3271 1526h48v166c0 51 26 70 73 70 30 0 51-18 51-57v-179h46v169c0 67-39 104-114 104-65 0-104-31-104-92zm516 274-143-205v200h-44v-268h48l136 199v-199h43v265zm206-6h-48v-268h48zm87-265 49-8 77 222 75-217h49l-102 266-48 8zm337-3h168l-4 36c-38-1-77-1-115-2v80h107l-5 32-102-2v89l127-2-4 37h-171v-268zm317 157v111h-48v-268h92c58 0 92 23 92 68 0 37-21 62-49 76l71 124h-54l-56-112c-8 1-15 2-22 2-8 0-17-1-26-1m86-75c0-32-18-49-59-49-10 0-19 0-28 1v91c11 1 22 2 36 2 27-2 51-13 51-45m157-14c0-42 41-74 99-74 32 0 62 4 81 10l-9 39c-26-9-54-15-85-15-25 0-42 11-42 33 0 21 16 33 59 50 68 27 83 47 83 82 0 48-44 81-113 81-28 0-59-5-79-11l9-40c27 10 57 17 91 17 24 0 45-12 45-33 0-23-12-37-62-56-54-22-77-41-77-83m333 200h-48v-268h48zm210-268c83 0 136 45 136 126 0 90-68 142-158 142h-71v-268zm-45 233c12 1 31 2 47 2 43 0 84-25 84-100 0-71-46-100-102-100h-30v198zm415-38h-105l-26 73h-48l103-267 50-7 102 273h-51zm-53-150-40 114h80zm310-45c83 0 136 45 136 126 0 90-68 142-158 142h-71v-268zm-45 233c12 1 31 2 47 2 43 0 84-25 84-100 0-71-46-100-102-100h-30v198zm-2475 807-271-388v378h-83v-507h91l258 376v-376h82v501zm549-149h-199l-49 139h-90l196-505 94-12 194 517h-96zm-100-283-76 216h152zm744 396c-37 21-106 36-162 36-146 0-253-88-253-259 0-158 106-269 269-269 63 0 118 10 142 22l-22 71c-33-11-86-26-147-26-72 0-148 43-148 188 0 153 96 203 185 203 47 0 94-13 117-27zm237 25h-91v-507h91zm390 11c-137 0-232-92-232-254 0-173 114-274 274-274 137 0 232 93 232 255 1 171-113 273-274 273m7-461c-80 0-144 51-144 183 0 151 70 211 173 211 81 0 145-50 145-184-1-150-72-210-174-210m778 461-271-388v378h-83v-507h91l258 376v-376h82v501zm550-149h-199l-49 139h-90l196-506 94-12 194 517h-96zm-101-283-76 216h152zm382-86h91v441l221-3-9 69h-303zm-3691 767c83 0 136 45 136 126 0 90-68 142-158 142h-71v-268zm-45 232c12 1 31 2 47 2 43 0 84-25 84-100 0-71-46-100-102-100h-30v198zm276-232h168l-4 36c-38-1-77-1-115-2v80h107l-5 32-102-2v89l127-2-4 37h-171v-268zm605 254c-20 11-56 19-86 19-77 0-133-46-133-137 0-84 56-142 142-142 33 0 62 5 75 11l-11 38c-17-6-45-14-78-14-38 0-78 23-78 100 0 81 51 107 98 107 25 0 50-7 62-14zm188 19c-72 0-123-49-123-134 0-91 60-145 145-145 72 0 123 49 123 135 0 90-60 144-145 144m3-243c-42 0-76 27-76 97 0 80 37 112 91 112 43 0 77-26 77-97 0-81-37-112-92-112m239-30h48v233l117-2-5 37h-160zm350 273c-72 0-123-49-123-134 0-91 60-145 145-145 72 0 123 49 123 135-1 90-61 144-145 144m3-243c-42 0-76 27-76 97 0 80 37 112 91 112 43 0 77-26 77-97 0-81-38-112-92-112m285 30-20 207h-45l33-268h51l83 214 80-214h51l32 268h-47l-21-208-75 200h-2v1l-42 7zm367-60h87c59 0 91 23 91 63 0 30-19 50-43 63 30 5 63 22 63 62 0 48-44 79-119 79h-78v-267zm131 77c0-28-15-45-61-45-5 0-14 0-22 1v83c10 0 20 1 28 1 42 0 55-16 55-40m18 117c0-31-25-48-68-48-9 0-22 1-33 1v87c15 1 33 1 50 1 28-1 51-11 51-41m191 74h-48v-268h48zm262-74h-105l-26 73h-48l103-267 50-7 102 273h-51zm-53-149-40 114h80zM2778 1834c0-99-47-183-123-220l-7-3 3 7c2 5 2 9 2 14 0 24-14 48-30 75-24 41-55 91-55 170 0 113 66 227 161 275l6 3-3-6c-5-12-8-27-8-40 0-44 12-88 25-134 16-46 29-93 29-141m-120-137c-10 43-21 115-22 152-1 36 2 91 8 118l4 20 1-20c3-41 7-82 10-117 7-72 14-121 23-158 8 36 10 87 10 110 0 58-2 128-15 227 25-85 41-172 41-227 0-37-4-87-10-117 28 39 43 91 43 150 0 45-13 90-26 134s-26 90-26 137c-70-62-105-139-105-229 1-60 23-111 64-180m-422-238c0 33 19 64 37 79l4 3 1-5c5-32 57-75 124-85h2c50-39 72-109 72-162 0-72-35-121-69-168-17-24-34-48-47-75 10 4 22 6 37 6 44 0 77-33 77-76 0-57-47-99-111-99-81 0-162 70-162 227 0 39 7 173 96 277-38 10-61 41-61 78m147-444c7-6 10-15 10-24 0-17-12-34-34-34-21 0-36 17-36 41 0 44 28 84 57 127 34 49 69 100 69 164 0 31-9 74-29 103 5-112-28-167-60-220-18-30-41-59-53-99 8 48 24 82 40 116 24 51 49 103 44 202-125-212-127-325-114-400l3-20-8 19c-40 89-7 230 97 421-40-6-72 8-86 38l-4 10 8-7c21-16 49-21 73-13-49 12-72 33-91 61-7-10-11-25-11-41 0-34 24-57 67-67l4-1-3-3c-87-104-105-212-105-284 0-140 72-203 139-203 52 0 85 30 85 76 0 31-23 55-51 55-17 0-30-2-38-7 14-2 22-6 27-10m178 532h1c38 0 75 26 113 53 43 31 88 63 142 63 56 0 98-38 98-88 0-53-41-85-80-85-26 0-44 13-48 34-11-11-23-22-41-30 57-33 89-99 79-161v-1l-1-1c-6-3-24-8-55-8-32 0-68 12-93 30-1-40-11-66-21-88-8-20-16-39-16-66 0-13 2-28 6-43l1-3h-3c-73 1-149 79-149 206-2 66 26 141 67 188m47-365c1 0 2-1 2-1 2-1 5-2 7-2-2 7-3 17-3 26 0 22 7 41 15 61 10 24 21 52 21 92 0 24-2 40-6 53l-5 16 10-14c33-45 74-68 121-68 12 0 21 1 31 3 2 49-25 112-107 146l-9 4 9 1c46 7 66 27 82 42 12 12 22 22 40 22s31-13 31-31c0-8-3-14-9-19-1-1-3-2-4-3 34 0 54 32 54 63 0 37-30 64-72 64-44 0-87-29-128-58-20-14-42-28-63-39 20 0 54 2 84 21l6 4c55 35 103 66 138 23l14-17-18 13c-30 23-59 3-104-26-9-6-17-11-27-17-28-18-69-20-91-21 43-24 88-58 110-85l10-12-14 8c-10 6-20 12-30 19-28 18-57 36-88 52 31-43 86-90 145-127l16-10-18 5c-56 16-119 70-161 119 9-36 23-108 17-172l-2-22-3 22c-8 56-21 115-35 165-14-86-9-169 13-253l4-16-9 14c-36 55-46 138-33 259-17-30-33-84-33-129 1-87 34-151 92-175m-848 372q15 0 27-27l4-8-8 5c-2 1-4 2-5 3 2-3 4-6 6-10l4-7-7 4c-22 11-31 20-31 32-1 4 2 8 10 8"/><path fill="#fff" d="M2884 2122c-18-17-39-25-62-24-32 1-53 20-53 48 0 22 16 39 36 39 4 0 7 0 10-1-12 14-35 15-45 15-64 0-126-44-157-112l-3-7-2 8c-5 24-8 50-8 80 0 63 18 116 53 152 31 33 74 51 120 51 87 0 149-63 149-149 1-40-13-77-38-100m-112 177c44 0 80-28 94-74l7-23-12 21c-20 35-47 50-89 50-53 0-107-43-129-102 32 28 70 53 128 53 47 0 80-27 80-66 0-21-13-37-31-38h3c42 0 75 45 75 102 0 70-53 124-124 124-78 0-132-53-147-144 32 61 85 97 145 97m-1058 54c26-19 20-38 11-55l-35-76h-10l27 77c-1 3-2 6-3 10-3 7-6 16-4 24-10-3-20 0-29 3-6 2-12 4-18 4h-6l4 4c12 13 22 20 34 20 9 1 18-3 29-11"/><path fill="#fff" d="M1660 2323c4 3 9 4 14 4 3 0 6-1 9-2 7-3 14-8 14-18 0-20-19-35-36-43v-88h-9v2c-3 46-4 72-5 88-1 15-1 21-1 26-1 13 5 25 14 31m156-49c28 0 54-18 60-40l49-73h-11l-52 67c-3 1-6 2-9 4-15 6-30 12-37 21-6-9-22-15-36-21-3-1-7-3-10-4l-52-67h-11l49 71c6 25 31 42 60 42m-66 105c11-13 17-25 16-37-1-10-6-20-16-29l-4-4v6c0 5-4 12-7 19-5 9-10 19-8 27-9-1-18 4-26 9-7 4-13 8-18 8h-5l3 4c9 12 18 18 29 18h1c11-1 23-8 35-21m-12-12"/><path fill="#fff" d="M1816 2233c25 0 49-16 58-38l35-66h-11l-34 55c-3 1-6 3-10 4-15 6-31 12-39 23-7-11-23-17-38-23-4-1-7-3-10-4l-36-55h-11l38 65c6 23 30 39 58 39m517 187c-11 0-22 3-34 6-13 3-26 7-40 7-57 0-95-23-124-73l-1-1h-31l-22 31 1 1c8 14 10 26 10 35 0 13-5 25-11 40-10 25-22 56-22 107 0 55 19 92 34 121 11 21 20 38 20 57 0 7-4 14-12 18l-2 1 12 29h52l202-316c3-5 8-16 8-27-2-20-19-36-40-36m-52 44v75l-17 24v-97c6 0 12-1 17-2m18-4c4-1 8-3 11-4q6-3 9-3c3 0 6 2 8 5 2 4 2 8 0 11l-29 42v-51zm-53 7v124l-17 24v-149c7 1 12 1 17 1m-34-4v179l-18 27v-212c1 0 2 1 4 1 3 2 8 3 14 5m-116 103c0-44 9-70 17-95 7-19 13-37 14-61l13 13v287c-4-10-8-19-13-29-15-29-31-61-31-115m80-118v247l-18 27v-285c6 5 13 9 18 11"/><path fill="#fff" d="M1816 2157c11 0 22-12 22-23 0-10-3-17-8-26-2-4-4-8-6-13l-3-51h-10l-3 51c-2 5-4 9-6 13-5 10-8 16-8 26 0 11 11 23 22 23"/><path fill="#fff" d="M1816 2192c27 0 41-19 50-38l22-63h-9l-25 52c-2 1-5 2-7 3-11 5-25 11-31 22-6-11-21-17-35-23-2-1-4-2-5-2l-22-52h-9l22 63c4 18 20 38 49 38m73 205c-8-6-16-13-26-11 3-10 0-20-3-29-2-7-5-14-4-21l1-5-5 3c-10 6-18 18-20 31-1 10 1 20 7 27l-14 11v-77c26-3 54-21 59-50l57-83h-11l-60 75c-3 1-7 3-11 4-17 6-36 12-42 23-7-11-26-17-42-23-4-1-8-3-11-4l-60-75h-11l57 83c6 29 33 47 59 50v77l-14-11c6-7 8-17 7-27-2-13-9-25-20-31l-5-3 1 5c1 6-1 13-4 21-3 9-6 19-3 29-10-3-20 5-28 12-5 4-10 8-15 10l-5 2 4 3c20 15 39 13 58-6l16 12-53 40 22 7 38-29v43l9 4 9-4v-43l41 29 22-7-55-40 16-12c20 19 39 21 58 6l4-3-5-1q-10.5-4.5-18-12m-73-95"/><path fill="#fff" d="M2597 3241c-17 0-34 3-51 10-26-29-60-46-95-46-45 0-72 23-72 59 0 15 5 28 13 38-18-8-35-16-53-24-14-6-29-13-46-21-68-31-302-130-468-133 85-44 170-73 252-101 78-26 152-51 218-88 88-52 150-117 194-206 53-106 80-247 85-431v-3h-3c-61 0-90-20-90-62 0-37 15-59 87-59h3v-3c0-56-9-101-17-145-8-43-17-87-17-141 0-47 11-142 84-241l1-1-30-58-2 1c-29 10-60 3-81-17-18-18-24-47-16-77l1-2-60-33-1 1c-96 91-201 138-305 138-52 0-132-10-215-56l-2-1-95 130-95-130-2 1c-83 47-163 56-215 56-105 0-207-47-305-138l-1-1-60 33 1 2c8 30 2 59-16 77-21 21-52 27-81 17l-2-1-30 58 1 1c73 99 84 193 84 241 0 54-8 98-17 141-8 44-17 89-17 145v3h3c73 0 88 23 88 59 0 42-29 62-90 62h-3v3c5 184 33 325 85 431 44 89 106 154 194 206 66 36 140 61 218 88 82 28 166 56 252 101-166 3-400 102-468 133-17 7-31 14-45 20-19 8-35 16-54 24 8-10 13-23 13-38 0-37-28-59-72-59-35 0-69 17-95 46-12-5-30-10-51-10-51 0-82 27-82 71v122c0 69 51 108 139 108 80 0 161-34 288-90 156-69 279-123 435-123s280 54 435 123c127 56 208 90 288 90 88 0 139-39 139-108v-122c1-43-30-70-81-70M1104 2032c8-52 17-105 17-149 0-76-31-166-82-240l14-28c32 6 64-4 87-27 20-20 30-51 27-83l29-15c98 89 202 135 309 135 73 0 147-17 210-48l86 121v317c-34 25-87 40-139 40-11 0-23-1-33-3h-1l-33 40 1 1c9 22 13 45 13 75 0 20-2 37-5 54h-424c-4-41-35-66-89-72-1-31 6-73 13-118m1362-526c-3 32 7 63 27 83 23 23 55 33 87 27l14 28c-51 74-82 164-82 240 0 44 8 97 17 149 7 45 14 88 14 119-54 6-85 31-89 72h-424c-2-17-5-34-5-54 0-30 4-53 13-75l1-1-33-40h-1c-10 1-21 3-33 3-52 0-106-15-139-40v-317l86-121c63 31 138 48 210 48 107 0 211-45 309-135zm-425 1503c-71 24-144 48-209 80v-568c172-59 205-126 205-231 0-13-2-26-3-36 0-2 0-4-1-5h421c3 30 21 66 91 72-7 303-94 497-266 594-71 39-156 67-238 94m-47-930 15 18-1 4c-5 21-9 41-9 67 0 19 3 41 5 63 2 20 5 39 5 53 0 100-29 157-193 211-164-54-193-111-193-211 0-15 2-33 5-53 3-21 5-44 5-63 0-26-4-46-9-67l-1-4 15-18h1c7 1 12 2 19 2 63 0 114-14 157-43 43 29 95 43 157 43 7 0 13-1 20-2zm-815 169h421c0 2 0 4-1 5-1 10-3 23-3 36 0 105 33 172 205 231v568c-64-32-138-56-209-80-82-27-167-55-238-95-172-97-259-291-266-594 69-5 88-41 91-71m-102 1096c-46 0-93-18-93-48 0-16 17-32 49-32 24 0 50 12 81 29 24 13 53 27 82 27-39 15-85 24-119 24m32-82c16-20 46-34 72-34 27 0 46 15 46 36 0 20-11 32-30 32-27 0-61-19-88-34m707-111c130 0 332 71 466 131 110 50 194 85 273 85 56 0 81-14 98-29v96c0 52-41 82-113 82-73 0-157-35-278-89-170-76-292-125-445-125s-276 50-445 125c-125 55-206 89-278 89s-113-30-113-82v-96c16 15 42 29 98 29 78 0 162-35 273-85 132-60 335-131 464-131m620 170c29 0 59-14 82-27 31-18 57-29 81-29 32 0 49 17 49 32 0 30-47 48-93 48-34-1-80-10-119-24m-31-57c0-21 19-36 46-36 26 0 56 14 72 34-26 15-61 34-89 34-18 0-29-12-29-32"/><path fill="#fff" d="M2473 3130c0 20 16 34 40 34 26 0 52-19 52-55 0-76-84-140-183-140-65 0-126 24-203 55-48 19-102 41-167 61l-5 1 4 3c75 62 152 93 228 93 73 0 131-29 177-53 29-15 54-27 73-27-10 5-16 16-16 28m-85-55c-50 21-128 31-179 31-12 0-47-1-74-2 57-7 106-20 149-33 64-18 120-33 182-24l21 3-19-8c-18-8-50-13-78-13-42 0-90 12-141 24-48 12-98 24-146 27 25-9 52-20 80-31 70-29 142-58 200-58 63 0 157 38 157 118v1c-7-21-26-32-57-32-24 0-53 14-85 30-45 23-97 48-158 48-40 0-81-9-124-28 82 4 174 1 272-53m-460-703c-8-5-18-11-26-9 2-9-3-18-7-27-4-7-7-14-7-20v-6l-4 4c-22 22-22 44 0 68 12 13 24 20 35 20s21-6 30-17l4-4h-6c-6-1-12-5-19-9m-33-3"/><path fill="#fff" d="m2561 2626-3-2-1 3c-8 24-14 50-20 75-22 89-43 173-134 197l-3 1 1 3c17 40 66 58 104 58 42 0 84-21 102-52 4 19 12 38 19 56 8 20 15 38 15 51 0 6 0 10-2 14-5-11-16-20-34-20s-39 16-39 39c0 32 26 54 64 54 65 0 131-55 131-178 2-110-59-200-200-299m47 154v6c1 56-11 97-36 122-17 17-40 26-67 26-26 0-51-12-63-22 59-25 97-87 120-202 13 71-18 161-56 194l-10 9 12-4c57-19 87-117 83-201 56 80 89 190 101 267l3 22 2-22c7-86-20-179-78-271 72 57 116 140 116 221 0 68-25 122-67 144-17 9-36 12-52 7 10 0 19-3 26-9 14-10 22-29 22-50 0-20-8-39-17-63-14-36-38-75-40-158zm-1287-229c0-40 15-56 53-57v17c0 38 0 71-5 106-6 41-23 53-48 72l-4 3 33 36 2-2c37-32 54-61 60-103 5-38 5-72 5-111v-18h74c-5 87-5 103-5 149 0 51 23 77 67 77 21 0 34-6 41-11l1-1v-40l-4 2c-9 4-15 6-27 6-16 0-35-5-35-44v-18c0-25 0-45 4-121h58v-41h-211c-66 0-97 26-104 87v2l45 12zm638-212c-9-3-18-7-27-4 3-9 0-17-3-26l-3-9 27-75h-9l-35 76c-13 19-10 38 6 50l1 1c1 0 1 1 2 1 12 8 23 12 32 12 13 0 23-7 33-17l4-4h-7c-8 0-14-3-21-5"/><path fill="#fff" d="M1972 2265c-12 7-36 24-36 43 0 9 6 18 15 21 2 1 5 1 7 1 5 0 10-2 15-5 9-7 15-19 15-32 0-5 0-11-1-27-1-15-3-40-5-84v-2h-9v85zm795 178c-23-22-47-38-68-52-31-20-57-38-73-66l-3-4-2 5c-16 35-26 100-26 143 0 104 42 160 86 208l6 7c31 36 67 77 91 148l1 3 3-1c45-24 76-93 76-168 0-90-31-166-91-223m-15 223c-4-9-9-18-13-26-36-71-70-138-88-219 76 84 124 175 145 298-3-152-61-243-121-312 101 59 157 150 157 258 0 72-28 114-41 129-23-47-56-95-91-133l-3-4c-38-48-74-93-74-188 0-13 0-21 1-37 22 88 66 172 123 237l13 15zM978 2320c35-37 53-89 53-152 0-31-3-57-8-80l-2-8-3 7c-32 68-93 112-157 112-10 0-33-2-45-15 3 1 6 1 10 1 20 0 36-17 36-39 0-28-21-46-53-48-23-1-44 7-62 24-24 23-39 60-39 99 0 87 63 149 149 149 47 1 90-17 121-50m-197-162c0 39 33 66 80 66 58 0 96-25 128-53-23 59-77 102-129 102-42 0-69-15-89-50l-12-21 7 23c14 46 50 74 94 74 60 0 113-35 146-98-15 90-70 144-147 144-70 0-124-53-124-124 0-57 33-102 75-102h3c-19 2-32 18-32 39m283 890c0-23-20-39-39-39s-30 10-34 20c-2-3-2-7-2-14 0-13 7-31 15-51 7-17 15-36 19-56 18 30 59 52 102 52 38 0 87-18 104-58l1-3-3-1c-91-24-112-108-134-197-6-25-12-50-20-75l-1-3-3 2c-142 99-202 189-202 298 0 123 66 178 131 178 40 1 66-21 66-53m-54-345c-58 92-85 186-78 271l2 22 3-22c12-78 45-187 101-267-4 84 26 182 83 201l12 4-10-9c-38-33-69-122-56-194 24 115 61 177 120 202-12 10-37 22-63 22-27 0-50-9-67-26-24-24-36-64-36-118v-10h-5v10c-2 81-21 129-35 164-10 23-17 42-17 63s8 40 22 50c8 6 17 9 26 9-16 5-34 2-52-7-42-23-67-77-67-144 1-80 46-164 117-221m890 654c-30 0-55 8-85 25-26-16-49-25-82-25-63 0-106 30-106 75 0 35 30 57 59 57 27 0 44-13 44-34 0-16-10-26-26-26-8 0-16 5-21 12-4 7-5 15-1 23-17-2-29-16-29-34 0-30 29-50 75-50 29 0 55 9 68 18-21 22-42 48-42 82 0 42 31 67 62 67 30 0 62-25 62-67 0-34-21-60-42-82 14-9 42-18 71-18 43 0 72 20 72 50 0 19-12 32-29 34 3-8 3-16-1-23-4-8-12-12-21-12-16 0-26 10-26 26 0 21 17 34 44 34 29 0 59-21 59-57-2-44-44-75-105-75m-85 58c24 22 36 43 36 66 0 28-18 41-36 41s-36-13-36-41q0-34.5 36-66"/><path fill="#fff" d="M1393 3182q115.5 0 228-93l4-3-5-1c-65-19-119-41-167-61-77-31-138-55-203-55-99 0-183 64-183 140 0 36 26 55 52 55 24 0 40-14 40-34 0-13-6-23-16-28 19 0 44 12 73 27 46 24 104 53 177 53m-10-128c-51-12-99-24-141-24-29 0-60 5-78 13l-19 8 21-3c62-10 117 6 182 24 44 12 93 26 149 33-27 1-62 2-74 2-51 0-131-5-182-26 99 54 192 52 275 50-43 19-83 28-124 28-61 0-113-26-158-48-33-16-61-30-85-30-31 0-50 11-57 32v-1c0-81 94-118 157-118 58 0 130 30 200 58 28 12 55 23 80 31-48-5-97-17-146-29m-433-378c43-48 86-104 86-208 0-43-10-108-26-143l-2-5-3 4c-16 28-43 46-73 66-21 14-45 30-68 52-59 56-91 133-91 221 0 75 31 145 76 168l3 1 1-3c24-71 59-111 91-147zm-67-7c57-65 101-149 123-237 1 17 1 24 1 37 0 95-36 140-74 188l-3 3c-36 39-69 87-91 134-12-15-41-57-41-129 0-108 55-199 157-258-60 69-118 160-121 312 21-122 69-214 145-298-18 80-52 147-87 218-4 9-9 18-13 27l-9 18zm11-514 6-3c95-49 161-162 161-275 0-79-30-129-55-170-16-27-30-51-30-75 0-5 0-10 2-14l3-7-7 3c-76 37-122 121-122 220 0 48 13 95 26 141s25 89 25 134c0 13-3 28-8 40zm18-354c0 55 16 142 41 227-13-99-15-169-15-227 0-24 2-75 10-110 9 37 16 87 23 158 4 35 8 76 10 117l1 20 4-19c5-27 9-82 8-118-1-37-12-109-22-152 41 70 63 121 63 179 0 90-35 166-105 229 0-47-13-93-26-137-13-43-26-88-26-134 0-59 15-110 43-150-5 30-9 81-9 117m245-512c0 53 22 123 72 162h2c67 10 119 53 124 85l1 5 4-3c18-15 37-47 37-79 0-37-23-68-60-79 89-104 96-238 96-277 0-157-82-227-162-227-64 0-111 42-111 99 0 43 33 76 77 76 15 0 27-2 37-6-13 27-30 51-47 75-35 48-70 97-70 169m148 103c44 10 68 33 68 67 0 16-4 31-11 41-18-27-41-48-91-61 25-8 52-3 73 13l8 7-4-10c-14-30-46-44-86-38 104-191 136-333 97-421l-8-19 3 20c13 75 11 189-114 400-5-99 20-151 44-202 16-34 33-68 40-116-12 40-35 69-53 99-32 53-65 109-60 220-20-30-29-72-29-103 0-64 35-115 69-164 29-43 57-83 57-127 0-24-15-41-36-41-22 0-34 17-34 34 0 10 4 18 10 24 5 4 13 9 25 9-9 5-21 7-38 7-29 0-51-24-51-55 0-46 33-76 85-76 67 0 139 64 139 203 0 72-18 180-105 284l-3 3zm-490 270c54 0 98-32 142-63 38-27 75-53 113-53h1l1-1c40-46 68-121 68-187 0-127-76-205-149-206h-3l1 3c4 15 6 30 6 43 0 27-8 46-16 66-9 23-20 48-21 88-25-18-61-30-93-30-31 0-50 5-55 8l-1 1v1c-10 62 22 128 79 161-17 7-30 19-41 30-4-21-22-34-48-34-39 0-80 32-80 85-2 51 40 88 96 88m-23-147c-5 5-9 11-9 19 0 18 13 31 31 31s28-10 40-22c16-16 35-35 82-42l9-1-9-4c-82-34-109-98-107-146 10-2 19-3 31-3 48 0 88 23 121 68l10 14-5-16c-4-13-6-29-6-53 0-41 11-68 21-92 8-20 15-38 15-61 0-10-1-19-3-26 2 1 5 2 7 2 1 0 2 1 2 1 58 24 91 88 91 177 0 46-16 99-33 129 14-121 3-204-33-259l-9-14 4 16c23 84 27 167 13 253-14-50-27-109-35-165l-3-22-2 22c-6 64 8 135 17 172-42-48-105-103-162-119l-18-5 16 10c59 37 114 84 145 127-30-16-59-34-87-52-10-6-21-13-31-19l-14-8 10 12c22 27 67 61 110 85-22 0-63 3-91 21-9 6-18 12-27 17-45 30-74 49-104 27l-18-13 14 17c35 43 83 12 138-23l6-4c30-19 64-21 84-21-21 11-42 25-63 39-41 28-84 58-128 58-42 0-72-27-72-64 0-31 20-63 54-63 1-2-1-2-2 0m1344 299c19 0 32-7 48-21 20-18 38-28 73-28 44 0 87 24 87 77 0 55-37 86-127 106l-25 6v36l34-6c69-17 162-51 162-144 0-68-54-116-131-116-73 0-142 53-142 77 0 8 9 13 21 13m10-33c0-4 3-6 6-6 4 0 6 3 6 6 0 4-3 6-6 6s-6-2-6-6m31 260-26-5c-31-6-37-10-37-15s3-9 19-13h2v-35l-3 1c-41 11-59 26-59 49 0 22 24 36 77 45l26 5c68 14 79 36 85 47 3 5 5 10 11 10s8-12 8-18c0-3-1-10-4-16-6-11-24-40-99-55"/><path fill="#fff" d="M2180 2093v-10l-31-6v17c-35 8-57 15-57 30v3h147v-3c0-15-23-23-59-31m-863-47c74 0 100-28 100-52v-3h-19l-66-204c26-5 49-8 69-8 4 11 17 22 33 22s29-11 33-22c28 0 54 5 69 8l-66 204h-19v3c0 24 26 52 100 52 70 0 95-27 95-52v-3h-16l-60-194 9 3 11-32-3-1c-42-13-82-21-124-23-5-12-17-21-32-21-14 0-27 8-33 21-42 3-80 10-123 23l-3 1 11 32 9-3-60 194h-16v3c5 26 30 52 101 52m-57-54 47-163v163zm67 0v-163l48 163zm168 0 48-163v163zm69 0v-163l48 163zm585 33 31 6v-101c63-14 124-31 124-82v-3h-278v3c0 50 61 68 124 82v95zm68-552c-23 18-46 23-90 23-73 0-155-44-191-44-31 0-44 18-49 62 39 0 152 57 232 57 59 0 93-21 98-98m-274 36c-12-3-17-12-17-23 0-14 8-22 18-21 14 3 18 14 18 27s-9 20-19 17m45 14-6-19v17l-13-4v-44l13 4c13 4 18 9 18 17 0 5-3 9-8 10l10 24zm31 11-13-4v-45l14 5c15 5 21 15 21 28-1 14-12 18-22 16m52 13-26-6v-42l25 6v8l-12-4v12l10 1v8l-10-3v10l13 3zm42 6-15-1-12-33 1 32-8-1v-42l17 3 10 32-1-31h8zm-576-13c0-5-3-8-6-8v15c3 1 6-2 6-7"/><path fill="#fff" d="M2019 1496v31c5 1 9-1 9-12 0-14-4-17-9-19m-360-14-2 23 6-2"/><path fill="#fff" d="M1514 1571c80 0 193-59 232-59-5-44-18-62-49-62-37 0-118 46-191 46-32 0-67-5-90-23 5 77 39 98 98 98m154-99 10 40v-42l13-3c13-3 21 3 21 15 0 14-6 21-21 26l-13 4-13 4-1-6-9 4-1 8-10 4 9-48zm-51 17 30-9v9l-8 1v36l-13 4v-36l-9 4zm-31 9 14-4c10-3 17 4 17 12 0 4-3 9-6 10l10 15-14 4-8-14v17l-13 4zm-31 7 24-5v8l-12 1v10l12-3v8l-12 1v12l13-3v8l-26 5v-42zm-37 5 14-1c10-1 17 1 17 9 0 5-4 10-9 10 5 0 10 1 10 9s-5 13-15 14l-17 1zm-21 0h13v41h-13zm-28-2 13 1v35h10v8c-8 0-18-3-23-5zm512-25v17q6 1.5 6-6c1-5-1-9-6-11"/><path fill="#fff" d="M1604 1507c0-4-1-8-5-6v15c4-2 5-4 5-9m-67 14c0-4-3-6-6-6v13c3-1 6-3 6-7m407-50c-5-1-5 6-5 17 0 8 0 15 5 17 5 1 5-6 5-15s0-18-5-19m-183-16c0 15 8 39 13 54 13-3 31-5 41-5 13 0 31 3 44 5 5-15 13-39 13-54 0-21-15-28-57-28-39 0-54 7-54 28m64-10h8l-10 27v14h-13v-14l-10-27h13l6 19zm-126 40c0-13-3-13-8-13v30c6-3 8-6 8-17m-205 1837c0 8-9 10-19 8l3 14c15 5 33-5 33-23 0-23-24-27-24-40 0-10 9-12 19-9l-3-14c-18-3-32 8-32 23 0 23 23 26 23 41m101-31 14-4 3 15 13-4-13-79-22 6-14 86 17-5zm4-38 1-17 3-1 1 17 3 23-10 3zm-57 40c6 0 10-4 10-10s-4-10-10-10-10 4-10 10 4 10 10 10m-371 164c-5 3-14 5-18 6v-27l15-3v-13l-15 5v-23l18-3v-13c-10 3-21 5-33 8v82c9-1 24-5 33-8zm267-109 17-6 3 15 13-5-18-77-21 8-10 90 15-6zm4-37v-19l3-1 3 19 5 19-13 5zm-370 114 5 31h-2l-5-23-11-31-13-1v75l13 2v-24l-5-31h3l5 23 10 35 13 1v-80h-13zm120 5 5-1 3 10 12 18 15-5-22-28c8-5 13-14 13-24 0-13-10-22-28-17l-10 3v82l13-4v-34zm0-37c8-3 13 3 13 10 0 5-3 13-13 15zm476-104v-12c-13 5-24-3-24-26 0-21 6-31 22-31v-13c-21-3-36 15-36 44 0 39 20 46 38 38m-419 125c6 0 10-4 10-10s-4-10-10-10-10 4-10 10c-1 6 3 10 10 10m167-53-15 8v-74l-13 5v87l28-12zm-70 44c13 0 28-13 28-39v-61l-15 6v62c0 10-5 15-10 15-3 0-5-3-5-8v-60l-13 5v62c0 10 5 18 15 18m-51 2 15-6 3 18 13-5-13-80-23 10-13 89 15-6zm5-55 3-1 3 19 3 18-13 5zm-197 130 15-1v-68c3 0 14-1 14-1v-14c-12 3-33 5-43 5v13l13-1v67zm1236-90c6 0 10-4 10-10s-4-10-10-10-10 4-10 10 4 10 10 10m-29 8-21-7v-26l18 7v-13l-18-7v-21l21 9v-13l-34-16v88l34 13zm90 51 13-78-13-6-8 47-1 22-4-2v-22l-7-52-14-7 11 89zm-160-98h5l1 8 10 31 18 8-19-50c8-4 10-15 10-21 0-13-5-23-26-31l-13-5v88l13 5v-33zm0-41c8 3 13 6 13 17 0 10-8 14-13 12zm211 142-20-6v-24l15 5v-13l-15-4v-21l20 7v-13l-33-11v82l33 12zm78 32c13 0 22-10 22-28v-55h-14v58c0 8-5 10-8 10-5 0-8-4-8-13v-57l-15-3v59c-1 21 10 29 23 29m45-34-4-31h2l11 44 10-2 9-47 3-1-4 30v25l13-6v-70l-16 3-8 33-1 18h-3l-1-16-10-31-14 1v79l13-2zm-411-99 5-18 15 6v19l36 15v-15l-21-8v-23l15 6v-13l-15-6v-21l21 9v-14l-45-18-23 76zm14-50 4-17 3 1v41l-12-5zm295 143h5l1 6 9 24 15 4-15-39c5-3 10-12 10-21 0-15-8-27-23-31l-15-4v84l13 3zm0-41c8 0 13 6 13 14 0 10-5 15-13 15zm-1451 60c4 3 8 4 15 6v-73l-15-4zm794-207-18 1v-26h16v-12l-16 1v-22l18-1v-13l-31 1v85l31-1zm26-14-3-36h3l5 25 5 21h11l5-21 5-23h2l-2 36v27l13 2v-84l-16-1-10 31-3 20h-1l-1-20-11-34-15-1v85h13zm-151 22 14-4 3 18 15-3-15-80-23 5-10 85 14-4zm4-56h3l5 39-10 3zm80 21c0-31-14-41-35-39l-9 1v82l10-1c18-2 34-12 34-43m-31-26c10-3 18 8 18 28 0 15-8 28-18 28zm165-10-13-3v84l13 1zm221 147c12 4 23-5 23-18v-61l-13-4v62c0 5-3 9-8 8-6-1-10-8-10-18v-58l-13-5v61c1 20 8 29 21 33m-54-21h3l23 8v-15l-10-3-8 3c10-5 13-15 13-31 0-31-8-49-26-49-15 0-23 18-23 41 0 28 8 46 28 46m-4-73c9 0 12 14 12 30 0 18-3 31-10 31-10 0-13-15-13-31 0-19 2-30 11-30m-60 21c6 0 10-4 10-10s-4-10-10-10-10 4-10 10c0 7 3 10 10 10m-79-5 14 3v17l33 8v-13l-21-4v-25l18 4v-13l-18-3v-21l21 5v-12c-10-3-31-8-41-9l-26 77 14 3zm11-34 4-15h1l-1 15v24l-12-1zm-458-1894c0 23-18 41-46 41-23 0-39-15-41-41 13 10 41 3 46 23 3-21 28-21 39-36 2 6 2 8 2 13"/><path fill="#fff" d="M1501 1378c0 28-26 44-59 44-26 0-41-10-44-41 15 15 52 5 57 28 0-26 36-28 44-44 2 2 2 7 2 13m-62-44c-21 0-36-15-36-31 0-5 0-8 3-13 10 13 33 8 36 33-3-26 28-31 33-36 1 26-13 47-36 47"/><path fill="#fff" d="M1524 1419c0 33-36 54-67 54-23 0-39-13-44-36 4 4 13 3 39 3 10 0 23 0 28 13v-10c0-26 36-33 39-49 2 9 5 17 5 25m-85-126c-8-3-18-13-18-28s10-33 23-46c0 21 10 33 10 49 0 12-10 22-15 25m569-500c64 0 144 62 155 232-23 0-31-18-33-46-15-108-72-160-113-160-80 0-15 126-98 144 0 21-5 46-15 46-13 0-18-23-23-41 0 28-8 52-18 52-8 0-15-23-21-44 0 26-13 52-26 52-10 0-23-26-23-52-5 21-13 44-21 44-10 0-18-23-18-52-5 18-10 41-23 41-10 0-15-26-15-46-82-18-18-144-98-144-41 0-98 52-113 160-3 28-10 46-33 46 10-170 90-232 155-232 95 0 46 118 90 118 18 0 33-21 49-46-3 5-3 10-3 15 0 21 21 33 54 33 36 0 57-13 57-33 0-5 0-10-3-15 15 26 28 46 49 46 39 0-7-118 88-118m-515 479c13-5 23-18 23-54 15 70 31 116 49 160 13 33 26 54 26 64 0 8-3 10-8 13-38-47-69-116-90-183"/><path fill="#fff" d="M1560 973c-4 31-18 44-39 44 3-46 15-90 28-118 18-39 49-62 64-62 5 0 10 3 10 8s-8 8-18 18c-19 20-38 59-45 110"/><path fill="#fff" d="M1521 1038c13 0 26-8 33-39-3 21-3 39-3 57v52c0 18-3 41-26 44-4-42-4-81-4-114m8 133c15 0 28-13 28-44 13 116 44 180 59 224 8 23 13 41 13 54 0 8-3 13-10 15-38-60-77-156-90-249m44-136c13 0 26-8 33-41-3 23-5 41-5 54 0 18 3 41 3 54 0 21-3 41-26 46-5-28-8-54-8-80 0-12 0-23 3-33"/><path fill="#fff" d="M1609 973c-5 31-13 41-33 41 5-67 18-103 41-136 5-8 13-15 21-15 3 0 8 3 8 8s-3 8-5 13c-19 22-27 61-32 89m-31 193c15-3 26-15 28-46 8 75 33 149 52 198 8 21 10 36 10 49 0 8-3 13-8 18-38-54-72-157-82-219m44-152c15 0 28-13 33-36-3 21-3 36-3 52 0 23 3 44 3 57 0 23-15 39-31 39-3-26-3-46-3-67v-45zm23-95c5 0 10 8 10 26 0 23-8 49-31 49 8-65 13-75 21-75m-18 229c13-3 28-10 31-41 5 75 26 139 39 185 8 23 13 39 13 52 0 5-3 13-8 15-36-54-65-149-75-211m72-141c0 33 3 59 3 75 0 23-13 39-23 39-5-33-8-62-8-93 0-39 5-46 13-46 7-1 15 7 15 25m10 430 3-18 15-26-28 23-8 13h-5l3-18 21-18-26 8-5 8h-8l10-15 52-21 8-57c3 3 5 3 10 3 8 0 10 0 13-3l-13 57 33 21 5 21h-5l-13-13-23-8-23 28-10 15zm-30-299c10 0 23-10 26-36 3 26 13 70 13 88s-8 33-18 33c-11-23-16-59-21-85m61 103c0 10 5 21 15 21 8 0 15-8 21-18 10 10 15 28 15 62-13-3-23-15-23-31-3 21-10 31-18 31-5 0-8-8-8-18v-18c-3 10-18 23-31 18 9-24 19-42 29-47"/><path fill="#fff" d="M1761 1182c28 0 36 10 36 49v15c-13 0-21-13-23-26-3 18-10 26-15 26-8 0-10-5-10-18v-15c-10 18-21 18-28 18 9-39 19-49 40-49m54-132c15 0 26-15 26-36 5 21 15 28 23 28 10 0 21-18 21-39 3 18 13 33 26 33 0 28-5 44-18 44-8 0-10-13-15-33 0 21-10 41-21 41-8 0-13-8-18-31-3 23-13 41-23 41-8 0-21-18-21-41-5 23-10 31-18 31-10 0-21-21-21-41-5 21-8 33-15 33-13 0-18-15-18-44 10 0 23-15 26-33 0 21 10 39 21 39 8 0 18-8 23-28-1 21 9 36 22 36"/><path fill="#fff" d="M1815 1128c13 0 26-18 26-39 5 21 10 31 21 31 10 0 18-18 18-41 15 23 21 46 21 62 0 18-5 23-10 23-8 0-18-10-21-33 0 28-8 41-18 41-5 0-13-10-18-28 0 23-8 39-18 39-8 0-15-15-15-39-5 18-13 28-18 28-10 0-18-13-18-41-3 23-13 33-21 33-5 0-10-5-10-23 0-15 5-39 21-62 0 23 8 41 18 41s15-10 21-31c-2 21 11 39 21 39m-63 418c0-10 9-19 30-30-5 10-10 15-18 23 15-10 13-8 21-13-10 23-19 26-24 26s-9-2-9-6m18 23c0-10 8-23 26-41-5 15-8 21-13 36 8-13 13-18 18-26-3 36-14 42-22 42-5 1-9-3-9-11m45 56c-10 0-18-5-18-23 0-13 3-24 10-48 3 10 8 21 8 36 0-15 5-26 8-36 8 23 10 35 10 48 0 18-8 23-18 23m27-797c0 12 4 22 4 24 0 10-15 18-31 18-10 0-26-8-26-15 0-8 9-26 9-41 0-3 0-5-3-10 5 4 12 5 18 5s15-3 18-8c-31 9-42-9-45-24-12 5-23 1-26-8-5 3-12 4-17 8-5-22 3-27 30-31-4-4-5-9-5-13 0-13 14-19 46-19 14 0 23 5 21 12 0 5-3 5-3 8 17 5 22 19 22 33 1 25-12 30-12 61m-27-74c5 0 9-3 9-8s-4-8-9-8-9 3-9 8c0 6 4 8 9 8m36 827c-8 0-19-6-22-42 5 8 10 13 18 26-5-15-8-21-13-36 18 18 26 31 26 41 0 7-4 11-9 11m34-368v15c0 13-3 18-10 18-5 0-13-8-18-26 0 13-8 26-21 26v-15c0-39 8-49 36-49 21 0 31 10 41 49-8 0-18 0-28-18"/><path fill="#fff" d="M1890 1269v18c0 10-3 18-8 18-8 0-15-10-18-31-3 15-13 28-23 31 0-33 3-52 13-59 5 13 15 15 23 15 10 0 18-8 18-18 10 8 18 21 23 44-10 6-26-7-28-18m28 168-10-15-23-28-23 8-13 13h-5l5-21 33-21-13-57c3 3 5 3 13 3 5 0 8 0 10-3l5 57 54 21 8 15h-5l-5-8-26-8 21 18 3 18h-5l-8-13-28-23 15 26 3 18zm-48 116c-5 0-14-3-24-26 8 5 5 3 21 13-8-8-13-13-18-23 21 10 30 19 30 30-1 3-3 6-9 6m84-415c-5 26-10 62-21 85-10 0-18-15-18-33s10-62 13-88c0 26 16 36 26 36m52 10c-10 62-39 157-75 211-5-3-8-10-8-15 0-13 5-28 13-52 13-46 33-111 39-185 2 31 18 39 31 41m-72-141c0-18 8-26 15-26 8 0 10 8 10 46 0 31 0 59-5 93-10 0-23-15-23-39 0-15 3-41 3-74m121 159c-10 62-44 165-82 219-5-5-8-10-8-18 0-13 3-28 10-49 18-49 44-124 52-198 2 31 12 44 28 46m-67-247c8 0 13 10 21 75-23 0-31-26-31-49-1-18 2-26 10-26m23 95v44c0 21 0 41-3 67-15 0-31-15-31-39 0-13 3-33 3-57 0-15 0-31-3-52 5 25 18 37 34 37m13-41c-5-28-13-67-31-90-3-5-5-8-5-13s5-8 8-8c8 0 15 8 21 15 23 33 36 70 41 136-21 1-29-9-34-40m79 198c-13 93-52 188-90 250-8-3-13-8-13-15 0-13 8-31 15-54 15-44 46-108 59-224 1 31 14 43 29 43"/><path fill="#fff" d="M2073 973c-6-52-26-90-46-111-10-10-18-13-18-18s5-8 10-8c15 0 44 23 64 62 13 28 26 72 28 118-20 1-35-12-38-43m-13 62c3 10 3 21 3 33 0 26-3 52-8 80-23-5-26-26-26-46 0-13 3-36 3-54 0-13-3-31-5-54 7 33 20 41 33 41m80 237c-21 67-52 136-90 183-5-3-8-5-8-13 0-10 13-31 26-64 15-44 33-90 49-160-1 36 7 49 23 54"/><path fill="#fff" d="M2111 1038c0 33 0 72-5 113-23-3-26-26-26-44v-52c0-18 0-36-3-57 6 32 21 40 34 40m-2 381c0-8 3-15 5-26 3 15 39 23 39 49v10c5-13 18-13 28-13 26 0 35 1 39-3-5 23-21 36-44 36-31 1-67-20-67-53m56-371v36c0 49-5 113-21 167-13-5-23-18-23-46 0-8 0-18 3-26 3-18 8-62 8-113 0-18 0-39-3-59 8 33 23 41 36 41"/><path fill="#fff" d="M2132 1378c0-5 0-10 3-13 8 15 44 18 44 44 5-23 41-13 57-28-3 31-18 41-44 41-34-1-60-16-60-44"/><path fill="#fff" d="M2147 1336c0-5 0-8 3-13 10 15 36 15 36 36 8-21 36-13 49-23-3 26-18 41-41 41-29 1-47-17-47-41"/><path fill="#fff" d="M2194 1334c-23 0-37-21-36-46 5 5 36 10 33 36 3-26 26-21 36-33v13c0 14-13 30-33 30"/><path fill="#fff" d="M2194 1293c-8-3-15-13-15-26 0-15 10-28 10-49 13 13 23 31 23 46 0 16-11 26-18 29m-727-244c13 0 28-8 36-41-3 21-3 41-3 59 0 52 5 95 8 113 3 8 3 18 3 26 0 28-10 41-23 46-15-54-23-118-23-167-1-13-1-26 2-36"/></svg>