<svg xmlns="http://www.w3.org/2000/svg" xml:space="preserve" id="Capa_1" x="0" y="0" version="1.1" viewBox="0 0 808.5 425.2"><style>.st1{fill:#fff}</style><path d="M0 0h808.5v425.2H0z" style="fill:none"/><path d="M327.1 152.6h4.8v16.6c0 5.1 2.6 7 7.3 7 3 0 5.1-1.8 5.1-5.7v-17.9h4.6v16.9c0 6.7-3.9 10.4-11.4 10.4-6.5 0-10.4-3.1-10.4-9.2zm51.6 27.4-14.3-20.5v20H360v-26.8h4.8l13.6 19.9v-19.9h4.3v26.5zm20.6-.6h-4.8v-26.8h4.8zm8.7-26.5 4.9-.8 7.7 22.2 7.5-21.7h4.9l-10.2 26.6-4.8.8zm33.7-.3h16.8l-.4 3.6c-3.8-.1-7.7-.1-11.5-.2v8h10.7l-.5 3.2-10.2-.2v8.9l12.7-.2-.4 3.7h-17.1v-26.8zm31.7 15.7v11.1h-4.8v-26.8h9.2c5.8 0 9.2 2.3 9.2 6.8 0 3.7-2.1 6.2-4.9 7.6l7.1 12.4h-5.4l-5.6-11.2c-.8.1-1.5.2-2.2.2-.8 0-1.7-.1-2.6-.1m8.6-7.5c0-3.2-1.8-4.9-5.9-4.9-1 0-1.9 0-2.8.1v9.1c1.1.1 2.2.2 3.6.2 2.7-.2 5.1-1.3 5.1-4.5m15.7-1.4c0-4.2 4.1-7.4 9.9-7.4 3.2 0 6.2.4 8.1 1l-.9 3.9c-2.6-.9-5.4-1.5-8.5-1.5-2.5 0-4.2 1.1-4.2 3.3 0 2.1 1.6 3.3 5.9 5 6.8 2.7 8.3 4.7 8.3 8.2 0 4.8-4.4 8.1-11.3 8.1-2.8 0-5.9-.5-7.9-1.1l.9-4c2.7 1 5.7 1.7 9.1 1.7 2.4 0 4.5-1.2 4.5-3.3 0-2.3-1.2-3.7-6.2-5.6-5.4-2.2-7.7-4.1-7.7-8.3m33.3 20h-4.8v-26.8h4.8zm21-26.8c8.3 0 13.6 4.5 13.6 12.6 0 9-6.8 14.2-15.8 14.2h-7.1v-26.8zm-4.5 23.3c1.2.1 3.1.2 4.7.2 4.3 0 8.4-2.5 8.4-10 0-7.1-4.6-10-10.2-10h-3v19.8zm41.5-3.8h-10.5l-2.6 7.3h-4.8l10.3-26.7 5-.7 10.2 27.3h-5.1zm-5.3-15-4 11.4h8zm31-4.5c8.3 0 13.6 4.5 13.6 12.6 0 9-6.8 14.2-15.8 14.2h-7.1v-26.8zm-4.5 23.3c1.2.1 3.1.2 4.7.2 4.3 0 8.4-2.5 8.4-10 0-7.1-4.6-10-10.2-10h-3v19.8zM362.7 256.6l-27.1-38.8v37.8h-8.3v-50.7h9.1l25.8 37.6v-37.6h8.2V255zm54.9-14.9h-19.9l-4.9 13.9h-9l19.6-50.5 9.4-1.2 19.4 51.7h-9.6zm-10-28.3L400 235h15.2zM482 253c-3.7 2.1-10.6 3.6-16.2 3.6-14.6 0-25.3-8.8-25.3-25.9 0-15.8 10.6-26.9 26.9-26.9 6.3 0 11.8 1 14.2 2.2l-2.2 7.1c-3.3-1.1-8.6-2.6-14.7-2.6-7.2 0-14.8 4.3-14.8 18.8 0 15.3 9.6 20.3 18.5 20.3 4.7 0 9.4-1.3 11.7-2.7zm23.7 2.5h-9.1v-50.7h9.1zm39 1.1c-13.7 0-23.2-9.2-23.2-25.4 0-17.3 11.4-27.4 27.4-27.4 13.7 0 23.2 9.3 23.2 25.5.1 17.1-11.3 27.3-27.4 27.3m.7-46.1c-8 0-14.4 5.1-14.4 18.3 0 15.1 7 21.1 17.3 21.1 8.1 0 14.5-5 14.5-18.4-.1-15-7.2-21-17.4-21m77.8 46.1-27.1-38.8v37.8h-8.3v-50.7h9.1l25.8 37.6v-37.6h8.2V255zm55-14.9h-19.9l-4.9 13.9h-9L664 205l9.4-1.2 19.4 51.7h-9.6zm-10.1-28.3-7.6 21.6h15.2zm38.2-8.6h9.1v44.1l22.1-.3-.9 6.9h-30.3zM337.2 281.5c8.3 0 13.6 4.5 13.6 12.6 0 9-6.8 14.2-15.8 14.2h-7.1v-26.8zm-4.5 23.2c1.2.1 3.1.2 4.7.2 4.3 0 8.4-2.5 8.4-10 0-7.1-4.6-10-10.2-10h-3v19.8zm27.6-23.2h16.8l-.4 3.6c-3.8-.1-7.7-.1-11.5-.2v8h10.7l-.5 3.2-10.2-.2v8.9l12.7-.2-.4 3.7h-17.1v-26.8zM420.8 306.9c-2 1.1-5.6 1.9-8.6 1.9-7.7 0-13.3-4.6-13.3-13.7 0-8.4 5.6-14.2 14.2-14.2 3.3 0 6.2.5 7.5 1.1l-1.1 3.8c-1.7-.6-4.5-1.4-7.8-1.4-3.8 0-7.8 2.3-7.8 10 0 8.1 5.1 10.7 9.8 10.7 2.5 0 5-.7 6.2-1.4zm18.8 1.9c-7.2 0-12.3-4.9-12.3-13.4 0-9.1 6-14.5 14.5-14.5 7.2 0 12.3 4.9 12.3 13.5 0 9-6 14.4-14.5 14.4m.3-24.3c-4.2 0-7.6 2.7-7.6 9.7 0 8 3.7 11.2 9.1 11.2 4.3 0 7.7-2.6 7.7-9.7 0-8.1-3.7-11.2-9.2-11.2m23.9-3h4.8v23.3l11.7-.2-.5 3.7h-16zm35 27.3c-7.2 0-12.3-4.9-12.3-13.4 0-9.1 6-14.5 14.5-14.5 7.2 0 12.3 4.9 12.3 13.5-.1 9-6.1 14.4-14.5 14.4m.3-24.3c-4.2 0-7.6 2.7-7.6 9.7 0 8 3.7 11.2 9.1 11.2 4.3 0 7.7-2.6 7.7-9.7 0-8.1-3.8-11.2-9.2-11.2m28.5 3-2 20.7h-4.5l3.3-26.8h5.1l8.3 21.4 8-21.4h5.1l3.2 26.8h-4.7l-2.1-20.8-7.5 20h-.2v.1l-4.2.7zm36.7-6h8.7c5.9 0 9.1 2.3 9.1 6.3 0 3-1.9 5-4.3 6.3 3 .5 6.3 2.2 6.3 6.2 0 4.8-4.4 7.9-11.9 7.9h-7.8v-26.7zm13.1 7.7c0-2.8-1.5-4.5-6.1-4.5-.5 0-1.4 0-2.2.1v8.3c1 0 2 .1 2.8.1 4.2 0 5.5-1.6 5.5-4m1.8 11.7c0-3.1-2.5-4.8-6.8-4.8-.9 0-2.2.1-3.3.1v8.7c1.5.1 3.3.1 5 .1 2.8-.1 5.1-1.1 5.1-4.1m19.1 7.4h-4.8v-26.8h4.8zm26.2-7.4H614l-2.6 7.3h-4.8l10.3-26.7 5-.7 10.2 27.3H627zm-5.3-14.9-4 11.4h8zM277.8 183.4c0-9.9-4.7-18.3-12.3-22l-.7-.3.3.7c.2.5.2.9.2 1.4 0 2.4-1.4 4.8-3 7.5-2.4 4.1-5.5 9.1-5.5 17 0 11.3 6.6 22.7 16.1 27.5l.6.3-.3-.6c-.5-1.2-.8-2.7-.8-4 0-4.4 1.2-8.8 2.5-13.4 1.6-4.6 2.9-9.3 2.9-14.1m-12-13.7c-1 4.3-2.1 11.5-2.2 15.2-.1 3.6.2 9.1.8 11.8l.4 2 .1-2c.3-4.1.7-8.2 1-11.7.7-7.2 1.4-12.1 2.3-15.8.8 3.6 1 8.7 1 11 0 5.8-.2 12.8-1.5 22.7 2.5-8.5 4.1-17.2 4.1-22.7 0-3.7-.4-8.7-1-11.7 2.8 3.9 4.3 9.1 4.3 15 0 4.5-1.3 9-2.6 13.4s-2.6 9-2.6 13.7c-7-6.2-10.5-13.9-10.5-22.9.1-6 2.3-11.1 6.4-18M223.6 145.9c0 3.3 1.9 6.4 3.7 7.9l.4.3.1-.5c.5-3.2 5.7-7.5 12.4-8.5h.2c5-3.9 7.2-10.9 7.2-16.2 0-7.2-3.5-12.1-6.9-16.8-1.7-2.4-3.4-4.8-4.7-7.5 1 .4 2.2.6 3.7.6 4.4 0 7.7-3.3 7.7-7.6 0-5.7-4.7-9.9-11.1-9.9-8.1 0-16.2 7-16.2 22.7 0 3.9.7 17.3 9.6 27.7-3.8 1-6.1 4.1-6.1 7.8m14.7-44.4c.7-.6 1-1.5 1-2.4 0-1.7-1.2-3.4-3.4-3.4-2.1 0-3.6 1.7-3.6 4.1 0 4.4 2.8 8.4 5.7 12.7 3.4 4.9 6.9 10 6.9 16.4 0 3.1-.9 7.4-2.9 10.3.5-11.2-2.8-16.7-6-22-1.8-3-4.1-5.9-5.3-9.9.8 4.8 2.4 8.2 4 11.6 2.4 5.1 4.9 10.3 4.4 20.2-12.5-21.2-12.7-32.5-11.4-40l.3-2-.8 1.9c-4 8.9-.7 23 9.7 42.1-4-.6-7.2.8-8.6 3.8l-.4 1 .8-.7c2.1-1.6 4.9-2.1 7.3-1.3-4.9 1.2-7.2 3.3-9.1 6.1-.7-1-1.1-2.5-1.1-4.1 0-3.4 2.4-5.7 6.7-6.7l.4-.1-.3-.3c-8.7-10.4-10.5-21.2-10.5-28.4 0-14 7.2-20.3 13.9-20.3 5.2 0 8.5 3 8.5 7.6 0 3.1-2.3 5.5-5.1 5.5-1.7 0-3-.2-3.8-.7 1.4-.2 2.2-.6 2.7-1M256.1 154.7h.1c3.8 0 7.5 2.6 11.3 5.3 4.3 3.1 8.8 6.3 14.2 6.3 5.6 0 9.8-3.8 9.8-8.8 0-5.3-4.1-8.5-8-8.5-2.6 0-4.4 1.3-4.8 3.4-1.1-1.1-2.3-2.2-4.1-3 5.7-3.3 8.9-9.9 7.9-16.1v-.1l-.1-.1c-.6-.3-2.4-.8-5.5-.8-3.2 0-6.8 1.2-9.3 3-.1-4-1.1-6.6-2.1-8.8-.8-2-1.6-3.9-1.6-6.6 0-1.3.2-2.8.6-4.3l.1-.3h-.3c-7.3.1-14.9 7.9-14.9 20.6-.2 6.6 2.6 14.1 6.7 18.8m4.7-36.5c.1 0 .2-.1.2-.1.2-.1.5-.2.7-.2-.2.7-.3 1.7-.3 2.6 0 2.2.7 4.1 1.5 6.1 1 2.4 2.1 5.2 2.1 9.2 0 2.4-.2 4-.6 5.3l-.5 1.6 1-1.4c3.3-4.5 7.4-6.8 12.1-6.8 1.2 0 2.1.1 3.1.3.2 4.9-2.5 11.2-10.7 14.6l-.9.4.9.1c4.6.7 6.6 2.7 8.2 4.2 1.2 1.2 2.2 2.2 4 2.2s3.1-1.3 3.1-3.1c0-.8-.3-1.4-.9-1.9-.1-.1-.3-.2-.4-.3 3.4 0 5.4 3.2 5.4 6.3 0 3.7-3 6.4-7.2 6.4-4.4 0-8.7-2.9-12.8-5.8-2-1.4-4.2-2.8-6.3-3.9 2 0 5.4.2 8.4 2.1l.6.4c5.5 3.5 10.3 6.6 13.8 2.3l1.4-1.7-1.8 1.3c-3 2.3-5.9.3-10.4-2.6-.9-.6-1.7-1.1-2.7-1.7-2.8-1.8-6.9-2-9.1-2.1 4.3-2.4 8.8-5.8 11-8.5l1-1.2-1.4.8c-1 .6-2 1.2-3 1.9-2.8 1.8-5.7 3.6-8.8 5.2 3.1-4.3 8.6-9 14.5-12.7l1.6-1-1.8.5c-5.6 1.6-11.9 7-16.1 11.9.9-3.6 2.3-10.8 1.7-17.2l-.2-2.2-.3 2.2c-.8 5.6-2.1 11.5-3.5 16.5-1.4-8.6-.9-16.9 1.3-25.3l.4-1.6-.9 1.4c-3.6 5.5-4.6 13.8-3.3 25.9-1.7-3-3.3-8.4-3.3-12.9.1-8.7 3.4-15.1 9.2-17.5M176 155.4q1.5 0 2.7-2.7l.4-.8-.8.5c-.2.1-.4.2-.5.3.2-.3.4-.6.6-1l.4-.7-.7.4c-2.2 1.1-3.1 2-3.1 3.2-.1.4.2.8 1 .8" class="st1"/><path d="M288.4 212.2c-1.8-1.7-3.9-2.5-6.2-2.4-3.2.1-5.3 2-5.3 4.8 0 2.2 1.6 3.9 3.6 3.9.4 0 .7 0 1-.1-1.2 1.4-3.5 1.5-4.5 1.5-6.4 0-12.6-4.4-15.7-11.2l-.3-.7-.2.8c-.5 2.4-.8 5-.8 8 0 6.3 1.8 11.6 5.3 15.2 3.1 3.3 7.4 5.1 12 5.1 8.7 0 14.9-6.3 14.9-14.9.1-4-1.3-7.7-3.8-10m-11.2 17.7c4.4 0 8-2.8 9.4-7.4l.7-2.3-1.2 2.1c-2 3.5-4.7 5-8.9 5-5.3 0-10.7-4.3-12.9-10.2 3.2 2.8 7 5.3 12.8 5.3 4.7 0 8-2.7 8-6.6 0-2.1-1.3-3.7-3.1-3.8h.3c4.2 0 7.5 4.5 7.5 10.2 0 7-5.3 12.4-12.4 12.4-7.8 0-13.2-5.3-14.7-14.4 3.2 6.1 8.5 9.7 14.5 9.7M171.4 235.3c2.6-1.9 2-3.8 1.1-5.5l-3.5-7.6h-1l2.7 7.7c-.1.3-.2.6-.3 1-.3.7-.6 1.6-.4 2.4-1-.3-2 0-2.9.3-.6.2-1.2.4-1.8.4h-.6l.4.4c1.2 1.3 2.2 2 3.4 2 .9.1 1.8-.3 2.9-1.1" class="st1"/><path d="M166 232.3c.4.3.9.4 1.4.4.3 0 .6-.1.9-.2.7-.3 1.4-.8 1.4-1.8 0-2-1.9-3.5-3.6-4.3v-8.8h-.9v.2c-.3 4.6-.4 7.2-.5 8.8-.1 1.5-.1 2.1-.1 2.6-.1 1.3.5 2.5 1.4 3.1M181.6 227.4c2.8 0 5.4-1.8 6-4l4.9-7.3h-1.1l-5.2 6.7c-.3.1-.6.2-.9.4-1.5.6-3 1.2-3.7 2.1-.6-.9-2.2-1.5-3.6-2.1-.3-.1-.7-.3-1-.4l-5.2-6.7h-1.1l4.9 7.1c.6 2.5 3.1 4.2 6 4.2M175 237.9c1.1-1.3 1.7-2.5 1.6-3.7-.1-1-.6-2-1.6-2.9l-.4-.4v.6c0 .5-.4 1.2-.7 1.9-.5.9-1 1.9-.8 2.7-.9-.1-1.8.4-2.6.9-.7.4-1.3.8-1.8.8h-.5l.3.4c.9 1.2 1.8 1.8 2.9 1.8h.1c1.1-.1 2.3-.8 3.5-2.1m-1.2-1.2" class="st1"/><path d="M181.6 223.3c2.5 0 4.9-1.6 5.8-3.8l3.5-6.6h-1.1l-3.4 5.5c-.3.1-.6.3-1 .4-1.5.6-3.1 1.2-3.9 2.3-.7-1.1-2.3-1.7-3.8-2.3-.4-.1-.7-.3-1-.4l-3.6-5.5H172l3.8 6.5c.6 2.3 3 3.9 5.8 3.9M233.3 242c-1.1 0-2.2.3-3.4.6-1.3.3-2.6.7-4 .7-5.7 0-9.5-2.3-12.4-7.3l-.1-.1h-3.1l-2.2 3.1.1.1c.8 1.4 1 2.6 1 3.5 0 1.3-.5 2.5-1.1 4-1 2.5-2.2 5.6-2.2 10.7 0 5.5 1.9 9.2 3.4 12.1 1.1 2.1 2 3.8 2 5.7 0 .7-.4 1.4-1.2 1.8l-.2.1 1.2 2.9h5.2l20.2-31.6c.3-.5.8-1.6.8-2.7-.2-2-1.9-3.6-4-3.6m-5.2 4.4v7.5l-1.7 2.4v-9.7c.6 0 1.2-.1 1.7-.2m1.8-.4c.4-.1.8-.3 1.1-.4q.6-.3.9-.3c.3 0 .6.2.8.5.2.4.2.8 0 1.1l-2.9 4.2V246zm-5.3.7v12.4l-1.7 2.4v-14.9c.7.1 1.2.1 1.7.1m-3.4-.4v17.9l-1.8 2.7v-21.2c.1 0 .2.1.4.1.3.2.8.3 1.4.5m-11.6 10.3c0-4.4.9-7 1.7-9.5.7-1.9 1.3-3.7 1.4-6.1l1.3 1.3V271c-.4-1-.8-1.9-1.3-2.9-1.5-2.9-3.1-6.1-3.1-11.5m8-11.8v24.7l-1.8 2.7v-28.5c.6.5 1.3.9 1.8 1.1" class="st1"/><path d="M181.6 215.7c1.1 0 2.2-1.2 2.2-2.3 0-1-.3-1.7-.8-2.6-.2-.4-.4-.8-.6-1.3l-.3-5.1h-1l-.3 5.1c-.2.5-.4.9-.6 1.3-.5 1-.8 1.6-.8 2.6 0 1.1 1.1 2.3 2.2 2.3" class="st1"/><path d="M181.6 219.2c2.7 0 4.1-1.9 5-3.8l2.2-6.3h-.9l-2.5 5.2c-.2.1-.5.2-.7.3-1.1.5-2.5 1.1-3.1 2.2-.6-1.1-2.1-1.7-3.5-2.3-.2-.1-.4-.2-.5-.2l-2.2-5.2h-.9l2.2 6.3c.4 1.8 2 3.8 4.9 3.8M188.9 239.7c-.8-.6-1.6-1.3-2.6-1.1.3-1 0-2-.3-2.9-.2-.7-.5-1.4-.4-2.1l.1-.5-.5.3c-1 .6-1.8 1.8-2 3.1-.1 1 .1 2 .7 2.7l-1.4 1.1v-7.7c2.6-.3 5.4-2.1 5.9-5l5.7-8.3H193l-6 7.5c-.3.1-.7.3-1.1.4-1.7.6-3.6 1.2-4.2 2.3-.7-1.1-2.6-1.7-4.2-2.3-.4-.1-.8-.3-1.1-.4l-6-7.5h-1.1l5.7 8.3c.6 2.9 3.3 4.7 5.9 5v7.7l-1.4-1.1c.6-.7.8-1.7.7-2.7-.2-1.3-.9-2.5-2-3.1l-.5-.3.1.5c.1.6-.1 1.3-.4 2.1-.3.9-.6 1.9-.3 2.9-1-.3-2 .5-2.8 1.2-.5.4-1 .8-1.5 1l-.5.2.4.3c2 1.5 3.9 1.3 5.8-.6l1.6 1.2-5.3 4 2.2.7 3.8-2.9v4.3l.9.4.9-.4v-4.3l4.1 2.9 2.2-.7-5.5-4 1.6-1.2c2 1.9 3.9 2.1 5.8.6l.4-.3-.5-.1q-1.05-.45-1.8-1.2m-7.3-9.5" class="st1"/><path d="M259.7 324.1c-1.7 0-3.4.3-5.1 1-2.6-2.9-6-4.6-9.5-4.6-4.5 0-7.2 2.3-7.2 5.9 0 1.5.5 2.8 1.3 3.8-1.8-.8-3.5-1.6-5.3-2.4-1.4-.6-2.9-1.3-4.6-2.1-6.8-3.1-30.2-13-46.8-13.3 8.5-4.4 17-7.3 25.2-10.1 7.8-2.6 15.2-5.1 21.8-8.8 8.8-5.2 15-11.7 19.4-20.6 5.3-10.6 8-24.7 8.5-43.1v-.3h-.3c-6.1 0-9-2-9-6.2 0-3.7 1.5-5.9 8.7-5.9h.3v-.3c0-5.6-.9-10.1-1.7-14.5-.8-4.3-1.7-8.7-1.7-14.1 0-4.7 1.1-14.2 8.4-24.1l.1-.1-3-5.8-.2.1c-2.9 1-6 .3-8.1-1.7-1.8-1.8-2.4-4.7-1.6-7.7l.1-.2-6-3.3-.1.1c-9.6 9.1-20.1 13.8-30.5 13.8-5.2 0-13.2-1-21.5-5.6l-.2-.1-9.5 13-9.5-13-.2.1c-8.3 4.7-16.3 5.6-21.5 5.6-10.5 0-20.7-4.7-30.5-13.8l-.1-.1-6 3.3.1.2c.8 3 .2 5.9-1.6 7.7-2.1 2.1-5.2 2.7-8.1 1.7l-.2-.1-3 5.8.1.1c7.3 9.9 8.4 19.3 8.4 24.1 0 5.4-.8 9.8-1.7 14.1-.8 4.4-1.7 8.9-1.7 14.5v.3h.3c7.3 0 8.8 2.3 8.8 5.9 0 4.2-2.9 6.2-9 6.2h-.3v.3c.5 18.4 3.3 32.5 8.5 43.1 4.4 8.9 10.6 15.4 19.4 20.6 6.6 3.6 14 6.1 21.8 8.8 8.2 2.8 16.6 5.6 25.2 10.1-16.6.3-40 10.2-46.8 13.3-1.7.7-3.1 1.4-4.5 2-1.9.8-3.5 1.6-5.4 2.4.8-1 1.3-2.3 1.3-3.8 0-3.7-2.8-5.9-7.2-5.9-3.5 0-6.9 1.7-9.5 4.6-1.2-.5-3-1-5.1-1-5.1 0-8.2 2.7-8.2 7.1v12.2c0 6.9 5.1 10.8 13.9 10.8 8 0 16.1-3.4 28.8-9 15.6-6.9 27.9-12.3 43.5-12.3s28 5.4 43.5 12.3c12.7 5.6 20.8 9 28.8 9 8.8 0 13.9-3.9 13.9-10.8v-12.2c.1-4.3-3-7-8.1-7M110.4 203.2c.8-5.2 1.7-10.5 1.7-14.9 0-7.6-3.1-16.6-8.2-24l1.4-2.8c3.2.6 6.4-.4 8.7-2.7 2-2 3-5.1 2.7-8.3l2.9-1.5c9.8 8.9 20.2 13.5 30.9 13.5 7.3 0 14.7-1.7 21-4.8l8.6 12.1v31.7c-3.4 2.5-8.7 4-13.9 4-1.1 0-2.3-.1-3.3-.3h-.1l-3.3 4 .1.1c.9 2.2 1.3 4.5 1.3 7.5 0 2-.2 3.7-.5 5.4H118c-.4-4.1-3.5-6.6-8.9-7.2-.1-3.1.6-7.3 1.3-11.8m136.2-52.6c-.3 3.2.7 6.3 2.7 8.3 2.3 2.3 5.5 3.3 8.7 2.7l1.4 2.8c-5.1 7.4-8.2 16.4-8.2 24 0 4.4.8 9.7 1.7 14.9.7 4.5 1.4 8.8 1.4 11.9-5.4.6-8.5 3.1-8.9 7.2H203c-.2-1.7-.5-3.4-.5-5.4 0-3 .4-5.3 1.3-7.5l.1-.1-3.3-4h-.1c-1 .1-2.1.3-3.3.3-5.2 0-10.6-1.5-13.9-4V170l8.6-12.1c6.3 3.1 13.8 4.8 21 4.8 10.7 0 21.1-4.5 30.9-13.5zm-42.5 150.3c-7.1 2.4-14.4 4.8-20.9 8v-56.8c17.2-5.9 20.5-12.6 20.5-23.1 0-1.3-.2-2.6-.3-3.6 0-.2 0-.4-.1-.5h42.1c.3 3 2.1 6.6 9.1 7.2-.7 30.3-9.4 49.7-26.6 59.4-7.1 3.9-15.6 6.7-23.8 9.4m-4.7-93 1.5 1.8-.1.4c-.5 2.1-.9 4.1-.9 6.7 0 1.9.3 4.1.5 6.3.2 2 .5 3.9.5 5.3 0 10-2.9 15.7-19.3 21.1-16.4-5.4-19.3-11.1-19.3-21.1 0-1.5.2-3.3.5-5.3.3-2.1.5-4.4.5-6.3 0-2.6-.4-4.6-.9-6.7l-.1-.4 1.5-1.8h.1c.7.1 1.2.2 1.9.2 6.3 0 11.4-1.4 15.7-4.3 4.3 2.9 9.5 4.3 15.7 4.3.7 0 1.3-.1 2-.2zm-81.5 16.9H160c0 .2 0 .4-.1.5-.1 1-.3 2.3-.3 3.6 0 10.5 3.3 17.2 20.5 23.1v56.8c-6.4-3.2-13.8-5.6-20.9-8-8.2-2.7-16.7-5.5-23.8-9.5-17.2-9.7-25.9-29.1-26.6-59.4 6.9-.5 8.8-4.1 9.1-7.1m-10.2 109.6c-4.6 0-9.3-1.8-9.3-4.8 0-1.6 1.7-3.2 4.9-3.2 2.4 0 5 1.2 8.1 2.9 2.4 1.3 5.3 2.7 8.2 2.7-3.9 1.5-8.5 2.4-11.9 2.4m3.2-8.2c1.6-2 4.6-3.4 7.2-3.4 2.7 0 4.6 1.5 4.6 3.6 0 2-1.1 3.2-3 3.2-2.7 0-6.1-1.9-8.8-3.4m70.7-11.1c13 0 33.2 7.1 46.6 13.1 11 5 19.4 8.5 27.3 8.5 5.6 0 8.1-1.4 9.8-2.9v9.6c0 5.2-4.1 8.2-11.3 8.2-7.3 0-15.7-3.5-27.8-8.9-17-7.6-29.2-12.5-44.5-12.5s-27.6 5-44.5 12.5c-12.5 5.5-20.6 8.9-27.8 8.9s-11.3-3-11.3-8.2v-9.6c1.6 1.5 4.2 2.9 9.8 2.9 7.8 0 16.2-3.5 27.3-8.5 13.2-6 33.5-13.1 46.4-13.1m62 17c2.9 0 5.9-1.4 8.2-2.7 3.1-1.8 5.7-2.9 8.1-2.9 3.2 0 4.9 1.7 4.9 3.2 0 3-4.7 4.8-9.3 4.8-3.4-.1-8-1-11.9-2.4m-3.1-5.7c0-2.1 1.9-3.6 4.6-3.6 2.6 0 5.6 1.4 7.2 3.4-2.6 1.5-6.1 3.4-8.9 3.4-1.8 0-2.9-1.2-2.9-3.2" class="st1"/><path d="M247.3 313c0 2 1.6 3.4 4 3.4 2.6 0 5.2-1.9 5.2-5.5 0-7.6-8.4-14-18.3-14-6.5 0-12.6 2.4-20.3 5.5-4.8 1.9-10.2 4.1-16.7 6.1l-.5.1.4.3c7.5 6.2 15.2 9.3 22.8 9.3 7.3 0 13.1-2.9 17.7-5.3 2.9-1.5 5.4-2.7 7.3-2.7-1 .5-1.6 1.6-1.6 2.8m-8.5-5.5c-5 2.1-12.8 3.1-17.9 3.1-1.2 0-4.7-.1-7.4-.2 5.7-.7 10.6-2 14.9-3.3 6.4-1.8 12-3.3 18.2-2.4l2.1.3-1.9-.8c-1.8-.8-5-1.3-7.8-1.3-4.2 0-9 1.2-14.1 2.4-4.8 1.2-9.8 2.4-14.6 2.7 2.5-.9 5.2-2 8-3.1 7-2.9 14.2-5.8 20-5.8 6.3 0 15.7 3.8 15.7 11.8v.1c-.7-2.1-2.6-3.2-5.7-3.2-2.4 0-5.3 1.4-8.5 3-4.5 2.3-9.7 4.8-15.8 4.8-4 0-8.1-.9-12.4-2.8 8.2.4 17.4.1 27.2-5.3M192.8 237.2c-.8-.5-1.8-1.1-2.6-.9.2-.9-.3-1.8-.7-2.7-.4-.7-.7-1.4-.7-2v-.6l-.4.4c-2.2 2.2-2.2 4.4 0 6.8 1.2 1.3 2.4 2 3.5 2s2.1-.6 3-1.7l.4-.4h-.6c-.6-.1-1.2-.5-1.9-.9m-3.3-.3" class="st1"/><path d="m256.1 262.6-.3-.2-.1.3c-.8 2.4-1.4 5-2 7.5-2.2 8.9-4.3 17.3-13.4 19.7l-.3.1.1.3c1.7 4 6.6 5.8 10.4 5.8 4.2 0 8.4-2.1 10.2-5.2.4 1.9 1.2 3.8 1.9 5.6.8 2 1.5 3.8 1.5 5.1 0 .6 0 1-.2 1.4-.5-1.1-1.6-2-3.4-2s-3.9 1.6-3.9 3.9c0 3.2 2.6 5.4 6.4 5.4 6.5 0 13.1-5.5 13.1-17.8.2-11-5.9-20-20-29.9m4.7 15.4v.6c.1 5.6-1.1 9.7-3.6 12.2-1.7 1.7-4 2.6-6.7 2.6-2.6 0-5.1-1.2-6.3-2.2 5.9-2.5 9.7-8.7 12-20.2 1.3 7.1-1.8 16.1-5.6 19.4l-1 .9 1.2-.4c5.7-1.9 8.7-11.7 8.3-20.1 5.6 8 8.9 19 10.1 26.7l.3 2.2.2-2.2c.7-8.6-2-17.9-7.8-27.1 7.2 5.7 11.6 14 11.6 22.1 0 6.8-2.5 12.2-6.7 14.4-1.7.9-3.6 1.2-5.2.7 1 0 1.9-.3 2.6-.9 1.4-1 2.2-2.9 2.2-5 0-2-.8-3.9-1.7-6.3-1.4-3.6-3.8-7.5-4-15.8zM132.1 255.1c0-4 1.5-5.6 5.3-5.7v1.7c0 3.8 0 7.1-.5 10.6-.6 4.1-2.3 5.3-4.8 7.2l-.4.3 3.3 3.6.2-.2c3.7-3.2 5.4-6.1 6-10.3.5-3.8.5-7.2.5-11.1v-1.8h7.4c-.5 8.7-.5 10.3-.5 14.9 0 5.1 2.3 7.7 6.7 7.7 2.1 0 3.4-.6 4.1-1.1l.1-.1v-4l-.4.2c-.9.4-1.5.6-2.7.6-1.6 0-3.5-.5-3.5-4.4v-1.8c0-2.5 0-4.5.4-12.1h5.8v-4.1H138c-6.6 0-9.7 2.6-10.4 8.7v.2l4.5 1.2zM195.9 233.9c-.9-.3-1.8-.7-2.7-.4.3-.9 0-1.7-.3-2.6l-.3-.9 2.7-7.5h-.9l-3.5 7.6c-1.3 1.9-1 3.8.6 5l.1.1c.1 0 .1.1.2.1 1.2.8 2.3 1.2 3.2 1.2 1.3 0 2.3-.7 3.3-1.7l.4-.4h-.7c-.8 0-1.4-.3-2.1-.5" class="st1"/><path d="M197.2 226.5c-1.2.7-3.6 2.4-3.6 4.3 0 .9.6 1.8 1.5 2.1.2.1.5.1.7.1.5 0 1-.2 1.5-.5.9-.7 1.5-1.9 1.5-3.2 0-.5 0-1.1-.1-2.7-.1-1.5-.3-4-.5-8.4v-.2h-.9v8.5zM276.7 244.3c-2.3-2.2-4.7-3.8-6.8-5.2-3.1-2-5.7-3.8-7.3-6.6l-.3-.4-.2.5c-1.6 3.5-2.6 10-2.6 14.3 0 10.4 4.2 16 8.6 20.8l.6.7c3.1 3.6 6.7 7.7 9.1 14.8l.1.3.3-.1c4.5-2.4 7.6-9.3 7.6-16.8 0-9-3.1-16.6-9.1-22.3m-1.5 22.3c-.4-.9-.9-1.8-1.3-2.6-3.6-7.1-7-13.8-8.8-21.9 7.6 8.4 12.4 17.5 14.5 29.8-.3-15.2-6.1-24.3-12.1-31.2 10.1 5.9 15.7 15 15.7 25.8 0 7.2-2.8 11.4-4.1 12.9-2.3-4.7-5.6-9.5-9.1-13.3l-.3-.4c-3.8-4.8-7.4-9.3-7.4-18.8 0-1.3 0-2.1.1-3.7 2.2 8.8 6.6 17.2 12.3 23.7l1.3 1.5zM97.8 232c3.5-3.7 5.3-8.9 5.3-15.2 0-3.1-.3-5.7-.8-8l-.2-.8-.3.7c-3.2 6.8-9.3 11.2-15.7 11.2-1 0-3.3-.2-4.5-1.5.3.1.6.1 1 .1 2 0 3.6-1.7 3.6-3.9 0-2.8-2.1-4.6-5.3-4.8-2.3-.1-4.4.7-6.2 2.4-2.4 2.3-3.9 6-3.9 9.9 0 8.7 6.3 14.9 14.9 14.9 4.7.1 9-1.7 12.1-5m-19.7-16.2c0 3.9 3.3 6.6 8 6.6 5.8 0 9.6-2.5 12.8-5.3-2.3 5.9-7.7 10.2-12.9 10.2-4.2 0-6.9-1.5-8.9-5l-1.2-2.1.7 2.3c1.4 4.6 5 7.4 9.4 7.4 6 0 11.3-3.5 14.6-9.8-1.5 9-7 14.4-14.7 14.4-7 0-12.4-5.3-12.4-12.4 0-5.7 3.3-10.2 7.5-10.2h.3c-1.9.2-3.2 1.8-3.2 3.9M106.4 304.8c0-2.3-2-3.9-3.9-3.9s-3 1-3.4 2c-.2-.3-.2-.7-.2-1.4 0-1.3.7-3.1 1.5-5.1.7-1.7 1.5-3.6 1.9-5.6 1.8 3 5.9 5.2 10.2 5.2 3.8 0 8.7-1.8 10.4-5.8l.1-.3-.3-.1c-9.1-2.4-11.2-10.8-13.4-19.7-.6-2.5-1.2-5-2-7.5l-.1-.3-.3.2c-14.2 9.9-20.2 18.9-20.2 29.8 0 12.3 6.6 17.8 13.1 17.8 4 .1 6.6-2.1 6.6-5.3m-5.4-34.5c-5.8 9.2-8.5 18.6-7.8 27.1l.2 2.2.3-2.2c1.2-7.8 4.5-18.7 10.1-26.7-.4 8.4 2.6 18.2 8.3 20.1l1.2.4-1-.9c-3.8-3.3-6.9-12.2-5.6-19.4 2.4 11.5 6.1 17.7 12 20.2-1.2 1-3.7 2.2-6.3 2.2-2.7 0-5-.9-6.7-2.6-2.4-2.4-3.6-6.4-3.6-11.8v-1h-.5v1c-.2 8.1-2.1 12.9-3.5 16.4-1 2.3-1.7 4.2-1.7 6.3s.8 4 2.2 5c.8.6 1.7.9 2.6.9-1.6.5-3.4.2-5.2-.7-4.2-2.3-6.7-7.7-6.7-14.4.1-8 4.6-16.4 11.7-22.1M190 335.7c-3 0-5.5.8-8.5 2.5-2.6-1.6-4.9-2.5-8.2-2.5-6.3 0-10.6 3-10.6 7.5 0 3.5 3 5.7 5.9 5.7 2.7 0 4.4-1.3 4.4-3.4 0-1.6-1-2.6-2.6-2.6-.8 0-1.6.5-2.1 1.2-.4.7-.5 1.5-.1 2.3-1.7-.2-2.9-1.6-2.9-3.4 0-3 2.9-5 7.5-5 2.9 0 5.5.9 6.8 1.8-2.1 2.2-4.2 4.8-4.2 8.2 0 4.2 3.1 6.7 6.2 6.7 3 0 6.2-2.5 6.2-6.7 0-3.4-2.1-6-4.2-8.2 1.4-.9 4.2-1.8 7.1-1.8 4.3 0 7.2 2 7.2 5 0 1.9-1.2 3.2-2.9 3.4.3-.8.3-1.6-.1-2.3-.4-.8-1.2-1.2-2.1-1.2-1.6 0-2.6 1-2.6 2.6 0 2.1 1.7 3.4 4.4 3.4 2.9 0 5.9-2.1 5.9-5.7-.2-4.4-4.4-7.5-10.5-7.5m-8.5 5.8c2.4 2.2 3.6 4.3 3.6 6.6 0 2.8-1.8 4.1-3.6 4.1s-3.6-1.3-3.6-4.1q0-3.45 3.6-6.6" class="st1"/><path d="M139.3 318.2q11.55 0 22.8-9.3l.4-.3-.5-.1c-6.5-1.9-11.9-4.1-16.7-6.1-7.7-3.1-13.8-5.5-20.3-5.5-9.9 0-18.3 6.4-18.3 14 0 3.6 2.6 5.5 5.2 5.5 2.4 0 4-1.4 4-3.4 0-1.3-.6-2.3-1.6-2.8 1.9 0 4.4 1.2 7.3 2.7 4.6 2.4 10.4 5.3 17.7 5.3m-1-12.8c-5.1-1.2-9.9-2.4-14.1-2.4-2.9 0-6 .5-7.8 1.3l-1.9.8 2.1-.3c6.2-1 11.7.6 18.2 2.4 4.4 1.2 9.3 2.6 14.9 3.3-2.7.1-6.2.2-7.4.2-5.1 0-13.1-.5-18.2-2.6 9.9 5.4 19.2 5.2 27.5 5-4.3 1.9-8.3 2.8-12.4 2.8-6.1 0-11.3-2.6-15.8-4.8-3.3-1.6-6.1-3-8.5-3-3.1 0-5 1.1-5.7 3.2v-.1c0-8.1 9.4-11.8 15.7-11.8 5.8 0 13 3 20 5.8 2.8 1.2 5.5 2.3 8 3.1-4.8-.5-9.7-1.7-14.6-2.9M95 267.6c4.3-4.8 8.6-10.4 8.6-20.8 0-4.3-1-10.8-2.6-14.3l-.2-.5-.3.4c-1.6 2.8-4.3 4.6-7.3 6.6-2.1 1.4-4.5 3-6.8 5.2-5.9 5.6-9.1 13.3-9.1 22.1 0 7.5 3.1 14.5 7.6 16.8l.3.1.1-.3c2.4-7.1 5.9-11.1 9.1-14.7zm-6.7-.7c5.7-6.5 10.1-14.9 12.3-23.7.1 1.7.1 2.4.1 3.7 0 9.5-3.6 14-7.4 18.8l-.3.3c-3.6 3.9-6.9 8.7-9.1 13.4-1.2-1.5-4.1-5.7-4.1-12.9 0-10.8 5.5-19.9 15.7-25.8-6 6.9-11.8 16-12.1 31.2 2.1-12.2 6.9-21.4 14.5-29.8-1.8 8-5.2 14.7-8.7 21.8-.4.9-.9 1.8-1.3 2.7l-.9 1.8zM89.4 215.5l.6-.3c9.5-4.9 16.1-16.2 16.1-27.5 0-7.9-3-12.9-5.5-17-1.6-2.7-3-5.1-3-7.5 0-.5 0-1 .2-1.4l.3-.7-.7.3c-7.6 3.7-12.2 12.1-12.2 22 0 4.8 1.3 9.5 2.6 14.1s2.5 8.9 2.5 13.4c0 1.3-.3 2.8-.8 4zm1.8-35.4c0 5.5 1.6 14.2 4.1 22.7-1.3-9.9-1.5-16.9-1.5-22.7 0-2.4.2-7.5 1-11 .9 3.7 1.6 8.7 2.3 15.8.4 3.5.8 7.6 1 11.7l.1 2 .4-1.9c.5-2.7.9-8.2.8-11.8-.1-3.7-1.2-10.9-2.2-15.2 4.1 7 6.3 12.1 6.3 17.9 0 9-3.5 16.6-10.5 22.9 0-4.7-1.3-9.3-2.6-13.7-1.3-4.3-2.6-8.8-2.6-13.4 0-5.9 1.5-11 4.3-15-.5 3-.9 8.1-.9 11.7M115.7 128.9c0 5.3 2.2 12.3 7.2 16.2h.2c6.7 1 11.9 5.3 12.4 8.5l.1.5.4-.3c1.8-1.5 3.7-4.7 3.7-7.9 0-3.7-2.3-6.8-6-7.9 8.9-10.4 9.6-23.8 9.6-27.7 0-15.7-8.2-22.7-16.2-22.7-6.4 0-11.1 4.2-11.1 9.9 0 4.3 3.3 7.6 7.7 7.6 1.5 0 2.7-.2 3.7-.6-1.3 2.7-3 5.1-4.7 7.5-3.5 4.8-7 9.7-7 16.9m14.8 10.3c4.4 1 6.8 3.3 6.8 6.7 0 1.6-.4 3.1-1.1 4.1-1.8-2.7-4.1-4.8-9.1-6.1 2.5-.8 5.2-.3 7.3 1.3l.8.7-.4-1c-1.4-3-4.6-4.4-8.6-3.8 10.4-19.1 13.6-33.3 9.7-42.1l-.8-1.9.3 2c1.3 7.5 1.1 18.9-11.4 40-.5-9.9 2-15.1 4.4-20.2 1.6-3.4 3.3-6.8 4-11.6-1.2 4-3.5 6.9-5.3 9.9-3.2 5.3-6.5 10.9-6 22-2-3-2.9-7.2-2.9-10.3 0-6.4 3.5-11.5 6.9-16.4 2.9-4.3 5.7-8.3 5.7-12.7 0-2.4-1.5-4.1-3.6-4.1-2.2 0-3.4 1.7-3.4 3.4 0 1 .4 1.8 1 2.4.5.4 1.3.9 2.5.9-.9.5-2.1.7-3.8.7-2.9 0-5.1-2.4-5.1-5.5 0-4.6 3.3-7.6 8.5-7.6 6.7 0 13.9 6.4 13.9 20.3 0 7.2-1.8 18-10.5 28.4l-.3.3zM81.5 166.2c5.4 0 9.8-3.2 14.2-6.3 3.8-2.7 7.5-5.3 11.3-5.3h.1l.1-.1c4-4.6 6.8-12.1 6.8-18.7 0-12.7-7.6-20.5-14.9-20.6h-.3l.1.3c.4 1.5.6 3 .6 4.3 0 2.7-.8 4.6-1.6 6.6-.9 2.3-2 4.8-2.1 8.8-2.5-1.8-6.1-3-9.3-3-3.1 0-5 .5-5.5.8l-.1.1v.1c-1 6.2 2.2 12.8 7.9 16.1-1.7.7-3 1.9-4.1 3-.4-2.1-2.2-3.4-4.8-3.4-3.9 0-8 3.2-8 8.5-.2 5.1 4 8.8 9.6 8.8m-2.3-14.7c-.5.5-.9 1.1-.9 1.9 0 1.8 1.3 3.1 3.1 3.1s2.8-1 4-2.2c1.6-1.6 3.5-3.5 8.2-4.2l.9-.1-.9-.4c-8.2-3.4-10.9-9.8-10.7-14.6 1-.2 1.9-.3 3.1-.3 4.8 0 8.8 2.3 12.1 6.8l1 1.4-.5-1.6c-.4-1.3-.6-2.9-.6-5.3 0-4.1 1.1-6.8 2.1-9.2.8-2 1.5-3.8 1.5-6.1 0-1-.1-1.9-.3-2.6.2.1.5.2.7.2.1 0 .2.1.2.1 5.8 2.4 9.1 8.8 9.1 17.7 0 4.6-1.6 9.9-3.3 12.9 1.4-12.1.3-20.4-3.3-25.9l-.9-1.4.4 1.6c2.3 8.4 2.7 16.7 1.3 25.3-1.4-5-2.7-10.9-3.5-16.5l-.3-2.2-.2 2.2c-.6 6.4.8 13.5 1.7 17.2C99 144.5 92.7 139 87 137.4l-1.8-.5 1.6 1c5.9 3.7 11.4 8.4 14.5 12.7-3-1.6-5.9-3.4-8.7-5.2-1-.6-2.1-1.3-3.1-1.9l-1.4-.8 1 1.2c2.2 2.7 6.7 6.1 11 8.5-2.2 0-6.3.3-9.1 2.1-.9.6-1.8 1.2-2.7 1.7-4.5 3-7.4 4.9-10.4 2.7l-1.8-1.3 1.4 1.7c3.5 4.3 8.3 1.2 13.8-2.3l.6-.4c3-1.9 6.4-2.1 8.4-2.1-2.1 1.1-4.2 2.5-6.3 3.9-4.1 2.8-8.4 5.8-12.8 5.8-4.2 0-7.2-2.7-7.2-6.4 0-3.1 2-6.3 5.4-6.3.1-.2-.1-.2-.2 0M213.6 181.4c1.9 0 3.2-.7 4.8-2.1 2-1.8 3.8-2.8 7.3-2.8 4.4 0 8.7 2.4 8.7 7.7 0 5.5-3.7 8.6-12.7 10.6l-2.5.6v3.6l3.4-.6c6.9-1.7 16.2-5.1 16.2-14.4 0-6.8-5.4-11.6-13.1-11.6-7.3 0-14.2 5.3-14.2 7.7 0 .8.9 1.3 2.1 1.3m1-3.3c0-.4.3-.6.6-.6.4 0 .6.3.6.6 0 .4-.3.6-.6.6s-.6-.2-.6-.6M217.7 204.1l-2.6-.5c-3.1-.6-3.7-1-3.7-1.5s.3-.9 1.9-1.3h.2v-3.5l-.3.1c-4.1 1.1-5.9 2.6-5.9 4.9 0 2.2 2.4 3.6 7.7 4.5l2.6.5c6.8 1.4 7.9 3.6 8.5 4.7.3.5.5 1 1.1 1s.8-1.2.8-1.8c0-.3-.1-1-.4-1.6-.6-1.1-2.4-4-9.9-5.5" class="st1"/><path d="M218 209.3v-1l-3.1-.6v1.7c-3.5.8-5.7 1.5-5.7 3v.3h14.7v-.3c0-1.5-2.3-2.3-5.9-3.1M131.7 204.6c7.4 0 10-2.8 10-5.2v-.3h-1.9l-6.6-20.4c2.6-.5 4.9-.8 6.9-.8.4 1.1 1.7 2.2 3.3 2.2s2.9-1.1 3.3-2.2c2.8 0 5.4.5 6.9.8l-6.6 20.4h-1.9v.3c0 2.4 2.6 5.2 10 5.2 7 0 9.5-2.7 9.5-5.2v-.3H163l-6-19.4.9.3 1.1-3.2-.3-.1c-4.2-1.3-8.2-2.1-12.4-2.3-.5-1.2-1.7-2.1-3.2-2.1-1.4 0-2.7.8-3.3 2.1-4.2.3-8 1-12.3 2.3l-.3.1 1.1 3.2.9-.3-6 19.4h-1.6v.3c.5 2.6 3 5.2 10.1 5.2m-5.7-5.4 4.7-16.3v16.3zm6.7 0v-16.3l4.8 16.3zm16.8 0 4.8-16.3v16.3zm6.9 0v-16.3l4.8 16.3zM214.9 202.5l3.1.6V193c6.3-1.4 12.4-3.1 12.4-8.2v-.3h-27.8v.3c0 5 6.1 6.8 12.4 8.2v9.5zM221.7 147.3c-2.3 1.8-4.6 2.3-9 2.3-7.3 0-15.5-4.4-19.1-4.4-3.1 0-4.4 1.8-4.9 6.2 3.9 0 15.2 5.7 23.2 5.7 5.9 0 9.3-2.1 9.8-9.8m-27.4 3.6c-1.2-.3-1.7-1.2-1.7-2.3 0-1.4.8-2.2 1.8-2.1 1.4.3 1.8 1.4 1.8 2.7s-.9 2-1.9 1.7m4.5 1.4-.6-1.9v1.7l-1.3-.4v-4.4l1.3.4c1.3.4 1.8.9 1.8 1.7 0 .5-.3.9-.8 1l1 2.4zm3.1 1.1-1.3-.4v-4.5l1.4.5c1.5.5 2.1 1.5 2.1 2.8-.1 1.4-1.2 1.8-2.2 1.6m5.2 1.3-2.6-.6v-4.2l2.5.6v.8l-1.2-.4v1.2l1 .1v.8l-1-.3v1l1.3.3zm4.2.6-1.5-.1-1.2-3.3.1 3.2-.8-.1v-4.2l1.7.3 1 3.2-.1-3.1h.8zM153.7 154c0-.5-.3-.8-.6-.8v1.5c.3.1.6-.2.6-.7" class="st1"/><path d="M201.9 149.6v3.1c.5.1.9-.1.9-1.2 0-1.4-.4-1.7-.9-1.9M165.9 148.2l-.2 2.3.6-.2z" class="st1"/><path d="M151.4 157.1c8 0 19.3-5.9 23.2-5.9-.5-4.4-1.8-6.2-4.9-6.2-3.7 0-11.8 4.6-19.1 4.6-3.2 0-6.7-.5-9-2.3.5 7.7 3.9 9.8 9.8 9.8m15.4-9.9 1 4V147l1.3-.3c1.3-.3 2.1.3 2.1 1.5 0 1.4-.6 2.1-2.1 2.6l-1.3.4-1.3.4-.1-.6-.9.4-.1.8-1 .4.9-4.8zm-5.1 1.7 3-.9v.9l-.8.1v3.6l-1.3.4v-3.6l-.9.4zm-3.1.9 1.4-.4c1-.3 1.7.4 1.7 1.2 0 .4-.3.9-.6 1l1 1.5-1.4.4-.8-1.4v1.7l-1.3.4zm-3.1.7 2.4-.5v.8l-1.2.1v1l1.2-.3v.8l-1.2.1v1.2l1.3-.3v.8l-2.6.5v-4.2zm-3.7.5 1.4-.1c1-.1 1.7.1 1.7.9 0 .5-.4 1-.9 1 .5 0 1 .1 1 .9s-.5 1.3-1.5 1.4l-1.7.1zm-2.1 0h1.3v4.1h-1.3zm-2.8-.2 1.3.1v3.5h1v.8c-.8 0-1.8-.3-2.3-.5zM198.1 148.3v1.7q.6.15.6-.6c.1-.5-.1-.9-.6-1.1" class="st1"/><path d="M160.4 150.7c0-.4-.1-.8-.5-.6v1.5c.4-.2.5-.4.5-.9M153.7 152.1c0-.4-.3-.6-.6-.6v1.3c.3-.1.6-.3.6-.7M194.4 147.1c-.5-.1-.5.6-.5 1.7 0 .8 0 1.5.5 1.7.5.1.5-.6.5-1.5s0-1.8-.5-1.9M176.1 145.5c0 1.5.8 3.9 1.3 5.4 1.3-.3 3.1-.5 4.1-.5 1.3 0 3.1.3 4.4.5.5-1.5 1.3-3.9 1.3-5.4 0-2.1-1.5-2.8-5.7-2.8-3.9 0-5.4.7-5.4 2.8m6.4-1h.8l-1 2.7v1.4H181v-1.4l-1-2.7h1.3l.6 1.9zM169.9 148.5c0-1.3-.3-1.3-.8-1.3v3c.6-.3.8-.6.8-1.7M149.4 332.2c0 .8-.9 1-1.9.8l.3 1.4c1.5.5 3.3-.5 3.3-2.3 0-2.3-2.4-2.7-2.4-4 0-1 .9-1.2 1.9-.9l-.3-1.4c-1.8-.3-3.2.8-3.2 2.3 0 2.3 2.3 2.6 2.3 4.1M159.5 329.1l1.4-.4.3 1.5 1.3-.4-1.3-7.9-2.2.6-1.4 8.6 1.7-.5zm.4-3.8.1-1.7.3-.1.1 1.7.3 2.3-1 .3zM154.2 329.3c.6 0 1-.4 1-1s-.4-1-1-1-1 .4-1 1 .4 1 1 1M117.1 345.7c-.5.3-1.4.5-1.8.6v-2.7l1.5-.3V342l-1.5.5v-2.3l1.8-.3v-1.3c-1 .3-2.1.5-3.3.8v8.2c.9-.1 2.4-.5 3.3-.8zM143.8 334.8l1.7-.6.3 1.5 1.3-.5-1.8-7.7-2.1.8-1 9 1.5-.6zm.4-3.7v-1.9l.3-.1.3 1.9.5 1.9-1.3.5zM107.2 342.5l.5 3.1h-.2l-.5-2.3-1.1-3.1-1.3-.1v7.5l1.3.2v-2.4l-.5-3.1h.3l.5 2.3 1 3.5 1.3.1v-8h-1.3zM119.2 343l.5-.1.3 1 1.2 1.8 1.5-.5-2.2-2.8c.8-.5 1.3-1.4 1.3-2.4 0-1.3-1-2.2-2.8-1.7l-1 .3v8.2l1.3-.4V343zm0-3.7c.8-.3 1.3.3 1.3 1 0 .5-.3 1.3-1.3 1.5zM166.8 328.9v-1.2c-1.3.5-2.4-.3-2.4-2.6 0-2.1.6-3.1 2.2-3.1v-1.3c-2.1-.3-3.6 1.5-3.6 4.4 0 3.9 2 4.6 3.8 3.8M124.9 341.4c.6 0 1-.4 1-1s-.4-1-1-1-1 .4-1 1c-.1.6.3 1 1 1M141.6 336.1l-1.5.8v-7.4l-1.3.5v8.7l2.8-1.2zM134.6 340.5c1.3 0 2.8-1.3 2.8-3.9v-6.1l-1.5.6v6.2c0 1-.5 1.5-1 1.5-.3 0-.5-.3-.5-.8v-6l-1.3.5v6.2c0 1 .5 1.8 1.5 1.8M129.5 340.7l1.5-.6.3 1.8 1.3-.5-1.3-8-2.3 1-1.3 8.9 1.5-.6zm.5-5.5.3-.1.3 1.9.3 1.8-1.3.5zM110.3 348.2l1.5-.1v-6.8c.3 0 1.4-.1 1.4-.1v-1.4c-1.2.3-3.3.5-4.3.5v1.3l1.3-.1v6.7zM233.9 339.2c.6 0 1-.4 1-1s-.4-1-1-1-1 .4-1 1 .4 1 1 1M231 340l-2.1-.7v-2.6l1.8.7v-1.3l-1.8-.7v-2.1l2.1.9v-1.3l-3.4-1.6v8.8l3.4 1.3zM240 345.1l1.3-7.8-1.3-.6-.8 4.7-.1 2.2-.4-.2v-2.2l-.7-5.2-1.4-.7 1.1 8.9zM224 335.3h.5l.1.8 1 3.1 1.8.8-1.9-5c.8-.4 1-1.5 1-2.1 0-1.3-.5-2.3-2.6-3.1l-1.3-.5v8.8l1.3.5v-3.3zm0-4.1c.8.3 1.3.6 1.3 1.7 0 1-.8 1.4-1.3 1.2zM245.1 345.4l-2-.6v-2.4l1.5.5v-1.3l-1.5-.4v-2.1l2 .7v-1.3l-3.3-1.1v8.2l3.3 1.2zM252.9 348.6c1.3 0 2.2-1 2.2-2.8v-5.5h-1.4v5.8c0 .8-.5 1-.8 1-.5 0-.8-.4-.8-1.3v-5.7l-1.5-.3v5.9c-.1 2.1 1 2.9 2.3 2.9M257.4 345.2l-.4-3.1h.2l1.1 4.4 1-.2.9-4.7.3-.1-.4 3v2.5l1.3-.6v-7l-1.6.3-.8 3.3-.1 1.8h-.3l-.1-1.6-1-3.1-1.4.1v7.9l1.3-.2zM216.3 335.3l.5-1.8 1.5.6v1.9l3.6 1.5V336l-2.1-.8v-2.3l1.5.6v-1.3l-1.5-.6v-2.1l2.1.9V329l-4.5-1.8-2.3 7.6zm1.4-5 .4-1.7.3.1v4.1l-1.2-.5zM247.2 344.6h.5l.1.6.9 2.4 1.5.4-1.5-3.9c.5-.3 1-1.2 1-2.1 0-1.5-.8-2.7-2.3-3.1l-1.5-.4v8.4l1.3.3zm0-4.1c.8 0 1.3.6 1.3 1.4 0 1-.5 1.5-1.3 1.5zM102.1 346.5c.4.3.8.4 1.5.6v-7.3l-1.5-.4zM181.5 325.8l-1.8.1v-2.6h1.6v-1.2l-1.6.1V320l1.8-.1v-1.3l-3.1.1v8.5l3.1-.1zM184.1 324.4l-.3-3.6h.3l.5 2.5.5 2.1h1.1l.5-2.1.5-2.3h.2l-.2 3.6v2.7l1.3.2v-8.4l-1.6-.1-1 3.1-.3 2h-.1l-.1-2-1.1-3.4-1.5-.1v8.5h1.3zM169 326.6l1.4-.4.3 1.8 1.5-.3-1.5-8-2.3.5-1 8.5 1.4-.4zm.4-5.6h.3l.5 3.9-1 .3zM177.4 323.1c0-3.1-1.4-4.1-3.5-3.9l-.9.1v8.2l1-.1c1.8-.2 3.4-1.2 3.4-4.3m-3.1-2.6c1-.3 1.8.8 1.8 2.8 0 1.5-.8 2.8-1.8 2.8zM190.8 319.5l-1.3-.3v8.4l1.3.1zM212.9 334.2c1.2.4 2.3-.5 2.3-1.8v-6.1l-1.3-.4v6.2c0 .5-.3.9-.8.8-.6-.1-1-.8-1-1.8v-5.8l-1.3-.5v6.1c.1 2 .8 2.9 2.1 3.3M207.5 332.1h.3l2.3.8v-1.5l-1-.3-.8.3c1-.5 1.3-1.5 1.3-3.1 0-3.1-.8-4.9-2.6-4.9-1.5 0-2.3 1.8-2.3 4.1 0 2.8.8 4.6 2.8 4.6m-.4-7.3c.9 0 1.2 1.4 1.2 3 0 1.8-.3 3.1-1 3.1-1 0-1.3-1.5-1.3-3.1 0-1.9.2-3 1.1-3M201.1 326.9c.6 0 1-.4 1-1s-.4-1-1-1-1 .4-1 1c0 .7.3 1 1 1M193.2 326.4l1.4.3v1.7l3.3.8v-1.3l-2.1-.4V325l1.8.4v-1.3l-1.8-.3v-2.1l2.1.5V321c-1-.3-3.1-.8-4.1-.9l-2.6 7.7 1.4.3zm1.1-3.4.4-1.5h.1l-.1 1.5v2.4l-1.2-.1zM148.5 133.6c0 2.3-1.8 4.1-4.6 4.1-2.3 0-3.9-1.5-4.1-4.1 1.3 1 4.1.3 4.6 2.3.3-2.1 2.8-2.1 3.9-3.6.2.6.2.8.2 1.3" class="st1"/><path d="M150.1 137.8c0 2.8-2.6 4.4-5.9 4.4-2.6 0-4.1-1-4.4-4.1 1.5 1.5 5.2.5 5.7 2.8 0-2.6 3.6-2.8 4.4-4.4.2.2.2.7.2 1.3M143.9 133.4c-2.1 0-3.6-1.5-3.6-3.1 0-.5 0-.8.3-1.3 1 1.3 3.3.8 3.6 3.3-.3-2.6 2.8-3.1 3.3-3.6.1 2.6-1.3 4.7-3.6 4.7" class="st1"/><path d="M152.4 141.9c0 3.3-3.6 5.4-6.7 5.4-2.3 0-3.9-1.3-4.4-3.6.4.4 1.3.3 3.9.3 1 0 2.3 0 2.8 1.3v-1c0-2.6 3.6-3.3 3.9-4.9.2.9.5 1.7.5 2.5M143.9 129.3c-.8-.3-1.8-1.3-1.8-2.8s1-3.3 2.3-4.6c0 2.1 1 3.3 1 4.9 0 1.2-1 2.2-1.5 2.5M200.8 79.3c6.4 0 14.4 6.2 15.5 23.2-2.3 0-3.1-1.8-3.3-4.6-1.5-10.8-7.2-16-11.3-16-8 0-1.5 12.6-9.8 14.4 0 2.1-.5 4.6-1.5 4.6-1.3 0-1.8-2.3-2.3-4.1 0 2.8-.8 5.2-1.8 5.2-.8 0-1.5-2.3-2.1-4.4 0 2.6-1.3 5.2-2.6 5.2-1 0-2.3-2.6-2.3-5.2-.5 2.1-1.3 4.4-2.1 4.4-1 0-1.8-2.3-1.8-5.2-.5 1.8-1 4.1-2.3 4.1-1 0-1.5-2.6-1.5-4.6-8.2-1.8-1.8-14.4-9.8-14.4-4.1 0-9.8 5.2-11.3 16-.3 2.8-1 4.6-3.3 4.6 1-17 9-23.2 15.5-23.2 9.5 0 4.6 11.8 9 11.8 1.8 0 3.3-2.1 4.9-4.6-.3.5-.3 1-.3 1.5 0 2.1 2.1 3.3 5.4 3.3 3.6 0 5.7-1.3 5.7-3.3 0-.5 0-1-.3-1.5 1.5 2.6 2.8 4.6 4.9 4.6 3.9 0-.7-11.8 8.8-11.8M149.3 127.2c1.3-.5 2.3-1.8 2.3-5.4 1.5 7 3.1 11.6 4.9 16 1.3 3.3 2.6 5.4 2.6 6.4 0 .8-.3 1-.8 1.3-3.8-4.7-6.9-11.6-9-18.3" class="st1"/><path d="M156 97.3c-.4 3.1-1.8 4.4-3.9 4.4.3-4.6 1.5-9 2.8-11.8 1.8-3.9 4.9-6.2 6.4-6.2.5 0 1 .3 1 .8s-.8.8-1.8 1.8c-1.9 2-3.8 5.9-4.5 11" class="st1"/><path d="M152.1 103.8c1.3 0 2.6-.8 3.3-3.9-.3 2.1-.3 3.9-.3 5.7v5.2c0 1.8-.3 4.1-2.6 4.4-.4-4.2-.4-8.1-.4-11.4M152.9 117.1c1.5 0 2.8-1.3 2.8-4.4 1.3 11.6 4.4 18 5.9 22.4.8 2.3 1.3 4.1 1.3 5.4 0 .8-.3 1.3-1 1.5-3.8-6-7.7-15.6-9-24.9M157.3 103.5c1.3 0 2.6-.8 3.3-4.1-.3 2.3-.5 4.1-.5 5.4 0 1.8.3 4.1.3 5.4 0 2.1-.3 4.1-2.6 4.6-.5-2.8-.8-5.4-.8-8 0-1.2 0-2.3.3-3.3" class="st1"/><path d="M160.9 97.3c-.5 3.1-1.3 4.1-3.3 4.1.5-6.7 1.8-10.3 4.1-13.6.5-.8 1.3-1.5 2.1-1.5.3 0 .8.3.8.8s-.3.8-.5 1.3c-1.9 2.2-2.7 6.1-3.2 8.9M157.8 116.6c1.5-.3 2.6-1.5 2.8-4.6.8 7.5 3.3 14.9 5.2 19.8.8 2.1 1 3.6 1 4.9 0 .8-.3 1.3-.8 1.8-3.8-5.4-7.2-15.7-8.2-21.9M162.2 101.4c1.5 0 2.8-1.3 3.3-3.6-.3 2.1-.3 3.6-.3 5.2 0 2.3.3 4.4.3 5.7 0 2.3-1.5 3.9-3.1 3.9-.3-2.6-.3-4.6-.3-6.7v-4.5zM164.5 91.9c.5 0 1 .8 1 2.6 0 2.3-.8 4.9-3.1 4.9.8-6.5 1.3-7.5 2.1-7.5M162.7 114.8c1.3-.3 2.8-1 3.1-4.1.5 7.5 2.6 13.9 3.9 18.5.8 2.3 1.3 3.9 1.3 5.2 0 .5-.3 1.3-.8 1.5-3.6-5.4-6.5-14.9-7.5-21.1M169.9 100.7c0 3.3.3 5.9.3 7.5 0 2.3-1.3 3.9-2.3 3.9-.5-3.3-.8-6.2-.8-9.3 0-3.9.5-4.6 1.3-4.6.7-.1 1.5.7 1.5 2.5M170.9 143.7l.3-1.8 1.5-2.6-2.8 2.3-.8 1.3h-.5l.3-1.8 2.1-1.8-2.6.8-.5.8h-.8l1-1.5 5.2-2.1.8-5.7c.3.3.5.3 1 .3.8 0 1 0 1.3-.3l-1.3 5.7 3.3 2.1.5 2.1h-.5l-1.3-1.3-2.3-.8-2.3 2.8-1 1.5zM167.9 113.8c1 0 2.3-1 2.6-3.6.3 2.6 1.3 7 1.3 8.8s-.8 3.3-1.8 3.3c-1.1-2.3-1.6-5.9-2.1-8.5M174 124.1c0 1 .5 2.1 1.5 2.1.8 0 1.5-.8 2.1-1.8 1 1 1.5 2.8 1.5 6.2-1.3-.3-2.3-1.5-2.3-3.1-.3 2.1-1 3.1-1.8 3.1-.5 0-.8-.8-.8-1.8V127c-.3 1-1.8 2.3-3.1 1.8.9-2.4 1.9-4.2 2.9-4.7" class="st1"/><path d="M176.1 118.2c2.8 0 3.6 1 3.6 4.9v1.5c-1.3 0-2.1-1.3-2.3-2.6-.3 1.8-1 2.6-1.5 2.6-.8 0-1-.5-1-1.8v-1.5c-1 1.8-2.1 1.8-2.8 1.8.9-3.9 1.9-4.9 4-4.9M181.5 105c1.5 0 2.6-1.5 2.6-3.6.5 2.1 1.5 2.8 2.3 2.8 1 0 2.1-1.8 2.1-3.9.3 1.8 1.3 3.3 2.6 3.3 0 2.8-.5 4.4-1.8 4.4-.8 0-1-1.3-1.5-3.3 0 2.1-1 4.1-2.1 4.1-.8 0-1.3-.8-1.8-3.1-.3 2.3-1.3 4.1-2.3 4.1-.8 0-2.1-1.8-2.1-4.1-.5 2.3-1 3.1-1.8 3.1-1 0-2.1-2.1-2.1-4.1-.5 2.1-.8 3.3-1.5 3.3-1.3 0-1.8-1.5-1.8-4.4 1 0 2.3-1.5 2.6-3.3 0 2.1 1 3.9 2.1 3.9.8 0 1.8-.8 2.3-2.8-.1 2.1.9 3.6 2.2 3.6" class="st1"/><path d="M181.5 112.8c1.3 0 2.6-1.8 2.6-3.9.5 2.1 1 3.1 2.1 3.1 1 0 1.8-1.8 1.8-4.1 1.5 2.3 2.1 4.6 2.1 6.2 0 1.8-.5 2.3-1 2.3-.8 0-1.8-1-2.1-3.3 0 2.8-.8 4.1-1.8 4.1-.5 0-1.3-1-1.8-2.8 0 2.3-.8 3.9-1.8 3.9-.8 0-1.5-1.5-1.5-3.9-.5 1.8-1.3 2.8-1.8 2.8-1 0-1.8-1.3-1.8-4.1-.3 2.3-1.3 3.3-2.1 3.3-.5 0-1-.5-1-2.3 0-1.5.5-3.9 2.1-6.2 0 2.3.8 4.1 1.8 4.1s1.5-1 2.1-3.1c-.2 2.1 1.1 3.9 2.1 3.9M175.2 154.6c0-1 .9-1.9 3-3-.5 1-1 1.5-1.8 2.3 1.5-1 1.3-.8 2.1-1.3-1 2.3-1.9 2.6-2.4 2.6s-.9-.2-.9-.6M177 156.9c0-1 .8-2.3 2.6-4.1-.5 1.5-.8 2.1-1.3 3.6.8-1.3 1.3-1.8 1.8-2.6-.3 3.6-1.4 4.2-2.2 4.2-.5.1-.9-.3-.9-1.1M181.5 162.5c-1 0-1.8-.5-1.8-2.3 0-1.3.3-2.4 1-4.8.3 1 .8 2.1.8 3.6 0-1.5.5-2.6.8-3.6.8 2.3 1 3.5 1 4.8 0 1.8-.8 2.3-1.8 2.3M184.2 82.8c0 1.2.4 2.2.4 2.4 0 1-1.5 1.8-3.1 1.8-1 0-2.6-.8-2.6-1.5 0-.8.9-2.6.9-4.1 0-.3 0-.5-.3-1 .5.4 1.2.5 1.8.5s1.5-.3 1.8-.8c-3.1.9-4.2-.9-4.5-2.4-1.2.5-2.3.1-2.6-.8-.5.3-1.2.4-1.7.8-.5-2.2.3-2.7 3-3.1-.4-.4-.5-.9-.5-1.3 0-1.3 1.4-1.9 4.6-1.9 1.4 0 2.3.5 2.1 1.2 0 .5-.3.5-.3.8 1.7.5 2.2 1.9 2.2 3.3.1 2.5-1.2 3-1.2 6.1m-2.7-7.4c.5 0 .9-.3.9-.8s-.4-.8-.9-.8-.9.3-.9.8c0 .6.4.8.9.8M185.1 158.1c-.8 0-1.9-.6-2.2-4.2.5.8 1 1.3 1.8 2.6-.5-1.5-.8-2.1-1.3-3.6 1.8 1.8 2.6 3.1 2.6 4.1 0 .7-.4 1.1-.9 1.1M188.5 121.3v1.5c0 1.3-.3 1.8-1 1.8-.5 0-1.3-.8-1.8-2.6 0 1.3-.8 2.6-2.1 2.6v-1.5c0-3.9.8-4.9 3.6-4.9 2.1 0 3.1 1 4.1 4.9-.8 0-1.8 0-2.8-1.8" class="st1"/><path d="M189 126.9v1.8c0 1-.3 1.8-.8 1.8-.8 0-1.5-1-1.8-3.1-.3 1.5-1.3 2.8-2.3 3.1 0-3.3.3-5.2 1.3-5.9.5 1.3 1.5 1.5 2.3 1.5 1 0 1.8-.8 1.8-1.8 1 .8 1.8 2.1 2.3 4.4-1 .6-2.6-.7-2.8-1.8M191.8 143.7l-1-1.5-2.3-2.8-2.3.8-1.3 1.3h-.5l.5-2.1 3.3-2.1-1.3-5.7c.3.3.5.3 1.3.3.5 0 .8 0 1-.3l.5 5.7 5.4 2.1.8 1.5h-.5l-.5-.8-2.6-.8 2.1 1.8.3 1.8h-.5l-.8-1.3-2.8-2.3 1.5 2.6.3 1.8zM187 155.3c-.5 0-1.4-.3-2.4-2.6.8.5.5.3 2.1 1.3-.8-.8-1.3-1.3-1.8-2.3 2.1 1 3 1.9 3 3-.1.3-.3.6-.9.6M195.4 113.8c-.5 2.6-1 6.2-2.1 8.5-1 0-1.8-1.5-1.8-3.3s1-6.2 1.3-8.8c0 2.6 1.6 3.6 2.6 3.6M200.6 114.8c-1 6.2-3.9 15.7-7.5 21.1-.5-.3-.8-1-.8-1.5 0-1.3.5-2.8 1.3-5.2 1.3-4.6 3.3-11.1 3.9-18.5.2 3.1 1.8 3.9 3.1 4.1M193.4 100.7c0-1.8.8-2.6 1.5-2.6.8 0 1 .8 1 4.6 0 3.1 0 5.9-.5 9.3-1 0-2.3-1.5-2.3-3.9 0-1.5.3-4.1.3-7.4M205.5 116.6c-1 6.2-4.4 16.5-8.2 21.9-.5-.5-.8-1-.8-1.8 0-1.3.3-2.8 1-4.9 1.8-4.9 4.4-12.4 5.2-19.8.2 3.1 1.2 4.4 2.8 4.6M198.8 91.9c.8 0 1.3 1 2.1 7.5-2.3 0-3.1-2.6-3.1-4.9-.1-1.8.2-2.6 1-2.6M201.1 101.4v4.4c0 2.1 0 4.1-.3 6.7-1.5 0-3.1-1.5-3.1-3.9 0-1.3.3-3.3.3-5.7 0-1.5 0-3.1-.3-5.2.5 2.5 1.8 3.7 3.4 3.7M202.4 97.3c-.5-2.8-1.3-6.7-3.1-9-.3-.5-.5-.8-.5-1.3s.5-.8.8-.8c.8 0 1.5.8 2.1 1.5 2.3 3.3 3.6 7 4.1 13.6-2.1.1-2.9-.9-3.4-4M210.3 117.1c-1.3 9.3-5.2 18.8-9 25-.8-.3-1.3-.8-1.3-1.5 0-1.3.8-3.1 1.5-5.4 1.5-4.4 4.6-10.8 5.9-22.4.1 3.1 1.4 4.3 2.9 4.3" class="st1"/><path d="M207.3 97.3c-.6-5.2-2.6-9-4.6-11.1-1-1-1.8-1.3-1.8-1.8s.5-.8 1-.8c1.5 0 4.4 2.3 6.4 6.2 1.3 2.8 2.6 7.2 2.8 11.8-2 .1-3.5-1.2-3.8-4.3M206 103.5c.3 1 .3 2.1.3 3.3 0 2.6-.3 5.2-.8 8-2.3-.5-2.6-2.6-2.6-4.6 0-1.3.3-3.6.3-5.4 0-1.3-.3-3.1-.5-5.4.7 3.3 2 4.1 3.3 4.1M214 127.2c-2.1 6.7-5.2 13.6-9 18.3-.5-.3-.8-.5-.8-1.3 0-1 1.3-3.1 2.6-6.4 1.5-4.4 3.3-9 4.9-16-.1 3.6.7 4.9 2.3 5.4" class="st1"/><path d="M211.1 103.8c0 3.3 0 7.2-.5 11.3-2.3-.3-2.6-2.6-2.6-4.4v-5.2c0-1.8 0-3.6-.3-5.7.6 3.2 2.1 4 3.4 4M210.9 141.9c0-.8.3-1.5.5-2.6.3 1.5 3.9 2.3 3.9 4.9v1c.5-1.3 1.8-1.3 2.8-1.3 2.6 0 3.5.1 3.9-.3-.5 2.3-2.1 3.6-4.4 3.6-3.1.1-6.7-2-6.7-5.3M216.5 104.8v3.6c0 4.9-.5 11.3-2.1 16.7-1.3-.5-2.3-1.8-2.3-4.6 0-.8 0-1.8.3-2.6.3-1.8.8-6.2.8-11.3 0-1.8 0-3.9-.3-5.9.8 3.3 2.3 4.1 3.6 4.1" class="st1"/><path d="M213.2 137.8c0-.5 0-1 .3-1.3.8 1.5 4.4 1.8 4.4 4.4.5-2.3 4.1-1.3 5.7-2.8-.3 3.1-1.8 4.1-4.4 4.1-3.4-.1-6-1.6-6-4.4" class="st1"/><path d="M214.7 133.6c0-.5 0-.8.3-1.3 1 1.5 3.6 1.5 3.6 3.6.8-2.1 3.6-1.3 4.9-2.3-.3 2.6-1.8 4.1-4.1 4.1-2.9.1-4.7-1.7-4.7-4.1" class="st1"/><path d="M219.4 133.4c-2.3 0-3.7-2.1-3.6-4.6.5.5 3.6 1 3.3 3.6.3-2.6 2.6-2.1 3.6-3.3v1.3c0 1.4-1.3 3-3.3 3" class="st1"/><path d="M219.4 129.3c-.8-.3-1.5-1.3-1.5-2.6 0-1.5 1-2.8 1-4.9 1.3 1.3 2.3 3.1 2.3 4.6 0 1.6-1.1 2.6-1.8 2.9M146.7 104.9c1.3 0 2.8-.8 3.6-4.1-.3 2.1-.3 4.1-.3 5.9 0 5.2.5 9.5.8 11.3.3.8.3 1.8.3 2.6 0 2.8-1 4.1-2.3 4.6-1.5-5.4-2.3-11.8-2.3-16.7-.1-1.3-.1-2.6.2-3.6" class="st1"/></svg>